<svg width="28" height="28" viewBox="0 0 28 28" fill="none" xmlns="http://www.w3.org/2000/svg">
<path d="M19.8336 13.4813C19.9313 13.4813 20.0282 13.4849 20.1241 13.4919L19.8063 14.1581L19.6929 14.4341L19.6754 14.4851C19.2008 15.858 19.6051 17.4102 20.8255 18.4398L21.5374 19.0404C21.4349 19.2854 21.3008 19.5382 21.13 19.7991C20.9564 20.0646 20.7674 20.3046 20.5632 20.5211L19.8077 20.2971L19.4899 20.2202L19.4259 20.2081C17.7555 19.8918 16.0836 20.5323 15.1436 21.7599L14.0212 23.2257L13.8523 23.4727L13.8238 23.5196C13.3869 24.2393 13.2244 25.0581 13.3335 25.8502C12.7967 25.8998 12.2409 25.9257 11.6668 25.9257C4.33891 25.9257 0 21.7183 0 17.6295V16.5924C0 14.8742 1.56701 13.4813 3.50004 13.4813H19.8336Z" fill="black"/>
<path d="M19.1309 22.2831L20.8562 22.7946L21.1406 22.8788C21.9426 22.3393 22.6113 21.6603 23.1466 20.8418C23.6056 20.1402 23.9059 19.429 24.0473 18.7085L24.1047 18.3472L22.4314 16.9355C21.88 16.4704 21.6798 15.7462 21.9052 15.0945L21.9773 14.9187L22.7368 13.3269C23.0929 12.5803 23.946 12.1743 24.7827 12.3292L24.9617 12.3711L25.9126 12.6412C26.8555 12.909 27.5776 13.6271 27.811 14.5287C28.3651 16.6715 27.7001 19.2803 25.8162 22.3553C23.9348 25.4257 21.8728 27.2719 19.6302 27.8937C18.7594 28.1351 17.824 27.9596 17.1202 27.4345L16.9342 27.2826L16.2119 26.638C15.5861 26.0795 15.4571 25.1959 15.8768 24.5046L15.9834 24.3487L17.0719 22.9271C17.3932 22.5075 17.8858 22.2537 18.4099 22.2095C18.5128 22.2008 18.6168 22.2001 18.7209 22.208C18.7937 22.2134 18.8667 22.223 18.9393 22.2366L19.1309 22.2831Z" fill="black"/>
<path d="M11.6667 0C15.2106 0 18.0835 2.55363 18.0835 5.70368C18.0835 8.85372 15.2106 11.4074 11.6667 11.4074C8.12288 11.4074 5.25 8.85372 5.25 5.70368C5.25 2.55363 8.12288 0 11.6667 0Z" fill="black"/>
</svg>
