<svg width="28" height="28" viewBox="0 0 28 28" fill="none" xmlns="http://www.w3.org/2000/svg">
<path d="M19.8334 13.4812C19.9312 13.4812 20.028 13.4848 20.1239 13.4918L19.8061 14.158L19.6927 14.434L19.6752 14.4849C19.2006 15.8578 19.605 17.41 20.8253 18.4396L21.5372 19.0403C21.4348 19.2852 21.3006 19.538 21.1298 19.799C20.9562 20.0644 20.7672 20.3044 20.563 20.5209L19.8075 20.2969L19.4897 20.22L19.4258 20.208C17.7553 19.8917 16.0835 20.5321 15.1435 21.7598L14.0211 23.2255L13.8522 23.4725L13.8237 23.5194C13.3868 24.2391 13.2242 25.0579 13.3334 25.85C12.7966 25.8996 12.2408 25.9255 11.6667 25.9255C4.33887 25.9255 0 21.7181 0 17.6293V16.5923C0 14.8741 1.567 13.4812 3.50001 13.4812H19.8334Z" fill="white"/>
<path d="M19.1306 22.2829L20.8559 22.7944L21.1403 22.8786C21.9423 22.3391 22.611 21.6601 23.1463 20.8417C23.6052 20.14 23.9055 19.4288 24.0469 18.7083L24.1043 18.347L22.4311 16.9353C21.8797 16.4703 21.6795 15.7461 21.9049 15.0943L21.977 14.9186L22.7365 13.3268C23.0926 12.5802 23.9457 12.1741 24.7824 12.3291L24.9614 12.371L25.9122 12.6411C26.8551 12.9089 27.5773 13.6269 27.8106 14.5286C28.3648 16.6713 27.6998 19.2801 25.8159 22.3551C23.9345 25.4255 21.8725 27.2716 19.6299 27.8934C18.7591 28.1348 17.8237 27.9594 17.12 27.4342L16.934 27.2824L16.2117 26.6378C15.5858 26.0792 15.4569 25.1957 15.8766 24.5044L15.9832 24.3485L17.0717 22.9269C17.393 22.5073 17.8855 22.2535 18.4096 22.2093C18.5125 22.2006 18.6166 22.1999 18.7206 22.2078C18.7934 22.2132 18.8665 22.2228 18.939 22.2364L19.1306 22.2829Z" fill="white"/>
<path d="M11.6667 0C15.2105 0 18.0834 2.55361 18.0834 5.70363C18.0834 8.85365 15.2105 11.4073 11.6667 11.4073C8.12285 11.4073 5.25 8.85365 5.25 5.70363C5.25 2.55361 8.12285 0 11.6667 0Z" fill="white"/>
</svg>
