<svg width="126" height="110" viewBox="0 0 126 110" fill="none" xmlns="http://www.w3.org/2000/svg">
<path d="M124.039 9.65412V81.739C124.039 83.4051 123.378 85.0029 122.201 86.181C121.024 87.3591 119.427 88.0209 117.762 88.0209H13.9337C13.0758 88.0203 12.2271 87.8439 11.4398 87.5026C10.6526 87.1613 9.94349 86.6623 9.35626 86.0364C8.2587 84.8759 7.64997 83.3369 7.65648 81.739V9.65412C7.65648 8.82952 7.8189 8.01301 8.13446 7.25128C8.45001 6.48954 8.91251 5.79753 9.4955 5.2148C10.0785 4.63207 10.7706 4.17005 11.5321 3.85517C12.2937 3.54029 13.1098 3.37872 13.9337 3.3797H117.762C118.586 3.37872 119.402 3.54029 120.164 3.85517C120.925 4.17005 121.617 4.63207 122.2 5.2148C122.783 5.79753 123.246 6.48954 123.561 7.25128C123.877 8.01301 124.039 8.82952 124.039 9.65412Z" fill="#FFDF4B"/>
<path d="M117.762 88.767H13.9337C12.0717 88.765 10.2866 88.024 8.97002 86.7064C7.65342 85.3888 6.91289 83.6024 6.91092 81.7391V9.65415C6.9129 7.79151 7.65367 6.00585 8.97048 4.68946C10.2873 3.37308 12.0724 2.63367 13.9337 2.63367H117.762C119.623 2.63564 121.407 3.37569 122.723 4.69164C124.039 6.0076 124.781 7.79212 124.785 9.65415V81.7391C124.781 83.6018 124.04 85.3871 122.723 86.7042C121.407 88.0214 119.623 88.7631 117.762 88.767ZM13.9337 4.1258C12.4679 4.1258 11.062 4.70801 10.0248 5.74456C8.98761 6.78112 8.40393 8.18725 8.40196 9.65415V81.7391C8.39467 83.1448 8.92863 84.4994 9.89299 85.5216C10.4109 86.0729 11.0356 86.5126 11.7291 86.8141C12.4226 87.1155 13.1702 87.2723 13.9262 87.2749H117.762C119.228 87.2729 120.634 86.689 121.671 85.6513C122.708 84.6136 123.292 83.2066 123.294 81.7391V9.65415C123.292 8.18725 122.708 6.78112 121.671 5.74456C120.634 4.70801 119.228 4.1258 117.762 4.1258H13.9337Z" fill="#093F68"/>
<path d="M13.889 9.15424H117.762V70.7271H13.889V9.15424Z" fill="#093F68"/>
<path d="M117.762 71.4732H13.889C13.6913 71.4732 13.5017 71.3946 13.3619 71.2547C13.222 71.1147 13.1435 70.925 13.1435 70.7271V9.15427C13.1435 8.9564 13.222 8.76663 13.3619 8.62672C13.5017 8.48681 13.6913 8.4082 13.889 8.4082H117.762C117.96 8.4082 118.149 8.48681 118.289 8.62672C118.429 8.76663 118.508 8.9564 118.508 9.15427V70.7271C118.508 70.925 118.429 71.1147 118.289 71.2547C118.149 71.3946 117.96 71.4732 117.762 71.4732ZM14.6345 69.981H117.017V9.90034H14.6345V69.981Z" fill="#093F68"/>
<path d="M79.5393 88.0209H52.1266C52.1266 88.0209 54.639 96.1008 44.3956 105.18H87.2629C77.012 96.1008 79.5393 88.0209 79.5393 88.0209Z" fill="#FFDF4B"/>
<path d="M87.2629 105.934H44.3956C44.2442 105.935 44.096 105.89 43.9708 105.805C43.8456 105.719 43.7493 105.598 43.6948 105.456C43.6407 105.314 43.6317 105.158 43.6691 105.01C43.7064 104.861 43.7882 104.728 43.9036 104.628C53.6773 95.959 51.4333 88.3193 51.4109 88.2148C51.3763 88.1031 51.3683 87.9848 51.3877 87.8695C51.4072 87.7541 51.4534 87.645 51.5228 87.5508C51.5922 87.4558 51.6831 87.3785 51.788 87.3254C51.893 87.2722 52.009 87.2446 52.1266 87.2449H79.5393C79.657 87.2446 79.773 87.2722 79.8779 87.3254C79.9829 87.3785 80.0738 87.4558 80.1432 87.5508C80.2125 87.645 80.2588 87.7541 80.2782 87.8695C80.2977 87.9848 80.2897 88.1031 80.255 88.2148C80.1581 88.5282 78.0185 95.9814 87.7624 104.628C87.8764 104.729 87.9568 104.863 87.9928 105.011C88.0288 105.159 88.0187 105.314 87.9637 105.456C87.9092 105.598 87.8129 105.719 87.6877 105.805C87.5625 105.89 87.4143 105.935 87.2629 105.934ZM46.2594 104.442H85.3544C78.2049 97.384 78.2496 91.117 78.5925 88.7744H53.0362C53.3791 91.1394 53.4462 97.384 46.2818 104.442H46.2594Z" fill="#093F68"/>
<path d="M65.8292 81.4704C67.3321 81.4704 68.5504 80.2513 68.5504 78.7473C68.5504 77.2434 67.3321 76.0242 65.8292 76.0242C64.3264 76.0242 63.1081 77.2434 63.1081 78.7473C63.1081 80.2513 64.3264 81.4704 65.8292 81.4704Z" fill="#093F68"/>
<path d="M65.8292 82.224C65.1418 82.2254 64.4694 82.0228 63.8971 81.6417C63.3248 81.2605 62.8783 80.7181 62.6143 80.0829C62.3502 79.4478 62.2803 78.7485 62.4135 78.0736C62.5467 77.3987 62.877 76.7785 63.3626 76.2916C63.8481 75.8046 64.4671 75.4727 65.1413 75.338C65.8154 75.2032 66.5143 75.2716 67.1495 75.5346C67.7848 75.7975 68.3278 76.2431 68.7099 76.815C69.0919 77.3869 69.2959 78.0594 69.2959 78.7473C69.2959 79.6681 68.9309 80.5512 68.281 81.203C67.6311 81.8548 66.7493 82.222 65.8292 82.224ZM65.8292 76.7702C65.4364 76.7687 65.052 76.8841 64.7247 77.1016C64.3974 77.3191 64.1421 77.6289 63.9911 77.9919C63.8401 78.3548 63.8002 78.7544 63.8765 79.1401C63.9527 79.5257 64.1418 79.88 64.4195 80.158C64.6973 80.436 65.0514 80.6252 65.4367 80.7015C65.8221 80.7778 66.2214 80.7379 66.5841 80.5868C66.9468 80.4357 67.2564 80.1801 67.4737 79.8526C67.6911 79.5251 67.8063 79.1404 67.8048 78.7473C67.8048 78.2229 67.5967 77.7201 67.2262 77.3493C66.8557 76.9785 66.3532 76.7702 65.8292 76.7702Z" fill="#093F68"/>
<path d="M90.9681 105.188H40.6904C39.5705 105.188 38.6626 106.096 38.6626 107.217C38.6626 108.338 39.5705 109.246 40.6904 109.246H90.9681C92.0881 109.246 92.996 108.338 92.996 107.217C92.996 106.096 92.0881 105.188 90.9681 105.188Z" fill="#FFDF4B"/>
<path d="M90.9681 110H40.6904C39.9787 109.963 39.3084 109.654 38.8177 109.137C38.3271 108.62 38.0535 107.934 38.0535 107.221C38.0535 106.508 38.3271 105.822 38.8177 105.305C39.3084 104.788 39.9787 104.479 40.6904 104.442H90.9681C91.6797 104.479 92.3501 104.788 92.8407 105.305C93.3314 105.822 93.6049 106.508 93.6049 107.221C93.6049 107.934 93.3314 108.62 92.8407 109.137C92.3501 109.654 91.6797 109.963 90.9681 110ZM40.6904 105.934C40.3662 105.959 40.0633 106.105 39.8424 106.344C39.6214 106.582 39.4986 106.896 39.4986 107.221C39.4986 107.546 39.6214 107.86 39.8424 108.098C40.0633 108.337 40.3662 108.483 40.6904 108.508H90.9681C91.2923 108.483 91.5951 108.337 91.8161 108.098C92.0371 107.86 92.1599 107.546 92.1599 107.221C92.1599 106.896 92.0371 106.582 91.8161 106.344C91.5951 106.105 91.2923 105.959 90.9681 105.934H40.6904Z" fill="#093F68"/>
<path d="M0.745514 0.746094H104.619V62.3115H0.745514V0.746094Z" fill="#FFDF4B"/>
<path d="M104.619 63.0575H0.745518C0.547794 63.0575 0.358168 62.9789 0.218357 62.839C0.0785449 62.6991 0 62.5093 0 62.3115V0.746066C0 0.548197 0.0785449 0.358437 0.218357 0.218523C0.358168 0.0786083 0.547794 0 0.745518 0H104.619C104.816 0 105.006 0.0786083 105.146 0.218523C105.286 0.358437 105.364 0.548197 105.364 0.746066V62.3115C105.364 62.5093 105.286 62.6991 105.146 62.839C105.006 62.9789 104.816 63.0575 104.619 63.0575ZM1.49104 61.5654H103.873V1.49213H1.49104V61.5654Z" fill="#093F68"/>
<path d="M104.619 0.746094V62.3115H59.0674C52.6386 53.3365 49.1814 42.5714 49.1814 31.5288C49.1814 20.4862 52.6386 9.72105 59.0674 0.746094H104.619Z" fill="white"/>
<path d="M104.619 63.0575H59.0674C58.9491 63.057 58.8326 63.0283 58.7276 62.9738C58.6226 62.9193 58.5321 62.8406 58.4635 62.7442C51.9427 53.6437 48.4359 42.727 48.4359 31.5288C48.4359 20.3305 51.9427 9.4138 58.4635 0.313352C58.5321 0.216929 58.6226 0.138221 58.7276 0.0837355C58.8326 0.0292501 58.9491 0.000547329 59.0674 0H104.633C104.831 0 105.021 0.0786083 105.161 0.218523C105.3 0.358437 105.379 0.548197 105.379 0.746066V62.3115C105.379 62.4107 105.359 62.5089 105.321 62.6004C105.282 62.692 105.226 62.7749 105.155 62.8444C105.085 62.9138 105.001 62.9685 104.908 63.0051C104.816 63.0417 104.718 63.0595 104.619 63.0575ZM59.4476 61.5654H103.873V1.49213H59.4103C53.2136 10.2805 49.8869 20.7728 49.8869 31.5288C49.8869 42.2847 53.2136 52.777 59.4103 61.5654H59.4476Z" fill="#093F68"/>
<path d="M26.6076 16.0703H11.3244C11.1267 16.0703 10.9371 15.9917 10.7973 15.8517C10.6575 15.7118 10.5789 15.5221 10.5789 15.3242C10.5789 15.1263 10.6575 14.9366 10.7973 14.7966C10.9371 14.6567 11.1267 14.5781 11.3244 14.5781H26.6076C26.8053 14.5781 26.9949 14.6567 27.1347 14.7966C27.2745 14.9366 27.3531 15.1263 27.3531 15.3242C27.3531 15.5221 27.2745 15.7118 27.1347 15.8517C26.9949 15.9917 26.8053 16.0703 26.6076 16.0703Z" fill="#093F68"/>
<path d="M36.5006 37.6466H11.2946C11.0969 37.6466 10.9072 37.5679 10.7674 37.428C10.6276 37.2881 10.5491 37.0984 10.5491 36.9005C10.5491 36.7026 10.6276 36.5129 10.7674 36.3729C10.9072 36.233 11.0969 36.1544 11.2946 36.1544H36.5006C36.6983 36.1544 36.8879 36.233 37.0277 36.3729C37.1675 36.5129 37.2461 36.7026 37.2461 36.9005C37.2461 37.0984 37.1675 37.2881 37.0277 37.428C36.8879 37.5679 36.6983 37.6466 36.5006 37.6466Z" fill="#093F68"/>
<path d="M36.5006 30.5813H11.2946C11.0969 30.5813 10.9072 30.5027 10.7674 30.3628C10.6276 30.2229 10.5491 30.0331 10.5491 29.8352C10.5491 29.6374 10.6276 29.4476 10.7674 29.3077C10.9072 29.1678 11.0969 29.0892 11.2946 29.0892H36.5006C36.6983 29.0892 36.8879 29.1678 37.0277 29.3077C37.1675 29.4476 37.2461 29.6374 37.2461 29.8352C37.2461 30.0331 37.1675 30.2229 37.0277 30.3628C36.8879 30.5027 36.6983 30.5813 36.5006 30.5813Z" fill="#093F68"/>
<path d="M33.6154 45.6145H14.1723C12.583 45.6145 11.2946 46.9022 11.2946 48.4906C11.2946 50.079 12.583 51.3667 14.1723 51.3667H33.6154C35.2047 51.3667 36.4931 50.079 36.4931 48.4906C36.4931 46.9022 35.2047 45.6145 33.6154 45.6145Z" fill="#FFBC0E"/>
<path d="M33.6229 52.1127H14.1723C13.6832 52.1349 13.1946 52.0577 12.7361 51.8857C12.2776 51.7137 11.8587 51.4505 11.5047 51.1119C11.1508 50.7734 10.869 50.3666 10.6765 49.916C10.484 49.4655 10.3848 48.9806 10.3848 48.4906C10.3848 48.0006 10.484 47.5157 10.6765 47.0651C10.869 46.6146 11.1508 46.2077 11.5047 45.8692C11.8587 45.5307 12.2776 45.2674 12.7361 45.0954C13.1946 44.9234 13.6832 44.8462 14.1723 44.8684H33.6229C34.112 44.8462 34.6006 44.9234 35.059 45.0954C35.5175 45.2674 35.9364 45.5307 36.2904 45.8692C36.6444 46.2077 36.9261 46.6146 37.1186 47.0651C37.3111 47.5157 37.4104 48.0006 37.4104 48.4906C37.4104 48.9806 37.3111 49.4655 37.1186 49.916C36.9261 50.3666 36.6444 50.7734 36.2904 51.1119C35.9364 51.4505 35.5175 51.7137 35.059 51.8857C34.6006 52.0577 34.112 52.1349 33.6229 52.1127ZM14.1723 46.3755C13.8822 46.3583 13.5916 46.4006 13.3185 46.4999C13.0453 46.5992 12.7953 46.7533 12.5838 46.9528C12.3723 47.1522 12.2038 47.3929 12.0887 47.6599C11.9735 47.9269 11.9141 48.2147 11.9141 48.5055C11.9141 48.7963 11.9735 49.0841 12.0887 49.3511C12.2038 49.6181 12.3723 49.8588 12.5838 50.0582C12.7953 50.2577 13.0453 50.4118 13.3185 50.5111C13.5916 50.6104 13.8822 50.6527 14.1723 50.6355H33.6229C33.913 50.6527 34.2035 50.6104 34.4767 50.5111C34.7498 50.4118 34.9998 50.2577 35.2113 50.0582C35.4228 49.8588 35.5913 49.6181 35.7065 49.3511C35.8216 49.0841 35.8811 48.7963 35.8811 48.5055C35.8811 48.2147 35.8216 47.9269 35.7065 47.6599C35.5913 47.3929 35.4228 47.1522 35.2113 46.9528C34.9998 46.7533 34.7498 46.5992 34.4767 46.4999C34.2035 46.4006 33.913 46.3583 33.6229 46.3755H14.1723Z" fill="#093F68"/>
<path d="M7.40302 8.09486C8.38296 8.09486 9.17736 7.29987 9.17736 6.31921C9.17736 5.33856 8.38296 4.54358 7.40302 4.54358C6.42309 4.54358 5.62869 5.33856 5.62869 6.31921C5.62869 7.29987 6.42309 8.09486 7.40302 8.09486Z" fill="#F56132"/>
<path d="M7.40297 4.55098C7.75453 4.54951 8.09861 4.65258 8.39154 4.84712C8.68447 5.04166 8.91304 5.3189 9.04826 5.64366C9.18348 5.96842 9.21924 6.32605 9.15102 6.67119C9.08279 7.01632 8.91365 7.33339 8.66506 7.58217C8.41646 7.83094 8.09962 8.00021 7.75474 8.06848C7.40986 8.13676 7.05249 8.10097 6.72797 7.96565C6.40345 7.83033 6.12641 7.60159 5.93202 7.30845C5.73762 7.01531 5.63463 6.67098 5.6361 6.31916C5.6361 5.85021 5.82225 5.40047 6.1536 5.06887C6.48496 4.73727 6.93437 4.55098 7.40297 4.55098ZM7.40297 3.43188C6.83055 3.43189 6.271 3.60185 5.79516 3.92026C5.31931 4.23866 4.94856 4.6912 4.72985 5.22058C4.51114 5.74996 4.45429 6.33238 4.56651 6.8941C4.67872 7.45583 4.95496 7.97161 5.36025 8.37615C5.76553 8.78069 6.28164 9.05579 6.84324 9.16664C7.40484 9.27749 7.98668 9.2191 8.5151 8.99886C9.04353 8.77862 9.49478 8.40643 9.81172 7.92942C10.1287 7.4524 10.2971 6.892 10.2956 6.31916C10.2936 5.55272 9.98798 4.81835 9.44573 4.27709C8.90347 3.73584 8.16885 3.43188 7.40297 3.43188Z" fill="#093F68"/>
<path d="M14.8432 8.09486C15.8232 8.09486 16.6176 7.29987 16.6176 6.31921C16.6176 5.33856 15.8232 4.54358 14.8432 4.54358C13.8633 4.54358 13.0689 5.33856 13.0689 6.31921C13.0689 7.29987 13.8633 8.09486 14.8432 8.09486Z" fill="#FFBC0E"/>
<path d="M14.8433 4.55099C15.1945 4.551 15.5379 4.65532 15.8298 4.85076C16.1217 5.04621 16.3492 5.32397 16.4832 5.64886C16.6173 5.97375 16.652 6.33115 16.5829 6.67579C16.5139 7.02043 16.3441 7.33681 16.0952 7.58484C15.8464 7.83286 15.5295 8.00138 15.1848 8.06905C14.8402 8.13672 14.4832 8.10049 14.1591 7.96496C13.835 7.82942 13.5584 7.60067 13.3643 7.30769C13.1703 7.0147 13.0675 6.67067 13.0689 6.31917C13.0689 6.08634 13.1149 5.8558 13.2041 5.64079C13.2934 5.42578 13.4242 5.23052 13.5891 5.06624C13.7539 4.90195 13.9496 4.77186 14.1648 4.68344C14.38 4.59502 14.6106 4.55001 14.8433 4.55099ZM14.8433 3.43189C14.2705 3.43042 13.7102 3.59912 13.2334 3.91663C12.7566 4.23414 12.3847 4.68617 12.1648 5.21541C11.945 5.74466 11.8871 6.32731 11.9984 6.88953C12.1098 7.45174 12.3855 7.96822 12.7904 8.37351C13.1954 8.77879 13.7115 9.05464 14.2733 9.1661C14.8351 9.27756 15.4173 9.2196 15.9462 8.99958C16.4751 8.77956 16.9268 8.40738 17.244 7.9302C17.5613 7.45302 17.7299 6.89232 17.7284 6.31917C17.7264 5.55402 17.4218 4.82078 16.8812 4.27973C16.3406 3.73869 15.6078 3.43386 14.8433 3.43189Z" fill="#093F68"/>
<path d="M22.2761 8.09486C23.256 8.09486 24.0504 7.29987 24.0504 6.31921C24.0504 5.33856 23.256 4.54358 22.2761 4.54358C21.2961 4.54358 20.5017 5.33856 20.5017 6.31921C20.5017 7.29987 21.2961 8.09486 22.2761 8.09486Z" fill="#70CC40"/>
<path d="M22.2761 4.55098C22.6273 4.55099 22.9707 4.65531 23.2626 4.85075C23.5546 5.0462 23.782 5.32396 23.9161 5.64885C24.0501 5.97374 24.0848 6.33114 24.0158 6.67578C23.9467 7.02042 23.777 7.3368 23.5281 7.58483C23.2792 7.83285 22.9623 8.00137 22.6176 8.06904C22.273 8.13671 21.916 8.10048 21.5919 7.96495C21.2678 7.82941 20.9912 7.60066 20.7972 7.30768C20.6031 7.01469 20.5003 6.67066 20.5018 6.31916C20.5037 5.84952 20.6915 5.3998 21.0241 5.06841C21.3566 4.73703 21.8068 4.55098 22.2761 4.55098ZM22.2761 3.43188C21.7037 3.43189 21.1441 3.60185 20.6683 3.92026C20.1924 4.23866 19.8217 4.6912 19.603 5.22058C19.3842 5.74996 19.3274 6.33238 19.4396 6.8941C19.5518 7.45583 19.8281 7.97161 20.2334 8.37615C20.6386 8.78069 21.1547 9.05579 21.7163 9.16664C22.2779 9.27749 22.8598 9.2191 23.3882 8.99886C23.9166 8.77862 24.3679 8.40643 24.6848 7.92942C25.0018 7.4524 25.1702 6.892 25.1687 6.31916C25.1667 5.55272 24.8611 4.81835 24.3188 4.27709C23.7766 3.73584 23.042 3.43188 22.2761 3.43188Z" fill="#093F68"/>
<path d="M52.7007 39.6609C52.5204 39.6627 52.3456 39.5991 52.2086 39.4818C52.0594 39.3522 51.9678 39.1686 51.9538 38.9713C51.9398 38.7741 52.0047 38.5793 52.1341 38.4299L69.2288 18.6815C69.3035 18.602 69.3936 18.5386 69.4936 18.495C69.5935 18.4514 69.7013 18.4285 69.8103 18.4279C69.921 18.4295 70.03 18.4558 70.1293 18.5048C70.2286 18.5539 70.3157 18.6244 70.3844 18.7114L85.7122 38.2434C85.7733 38.3206 85.8185 38.4092 85.8453 38.504C85.872 38.5988 85.8797 38.698 85.8679 38.7958C85.8561 38.8936 85.8251 38.9881 85.7766 39.0738C85.7281 39.1596 85.6632 39.2348 85.5855 39.2953C85.4301 39.4165 85.233 39.4711 85.0375 39.4474C84.8419 39.4236 84.6637 39.3234 84.5418 39.1685L69.7656 20.3452L53.2598 39.4072C53.19 39.4868 53.104 39.5506 53.0076 39.5943C52.9111 39.6381 52.8065 39.6608 52.7007 39.6609Z" fill="#DFEAEF"/>
<path d="M101.905 37.6465C101.788 37.6456 101.674 37.6175 101.57 37.5644C101.467 37.5113 101.377 37.4346 101.308 37.3406L91.6167 24.3516L81.679 33.6103C81.6091 33.685 81.5247 33.7445 81.4309 33.7851C81.3371 33.8258 81.236 33.8467 81.1338 33.8466C81.0315 33.8465 80.9305 33.8253 80.8368 33.7844C80.7431 33.7436 80.6588 33.6839 80.5891 33.609C80.5194 33.5342 80.4659 33.4458 80.4318 33.3494C80.3977 33.253 80.3838 33.1505 80.3909 33.0485C80.398 32.9465 80.426 32.847 80.4732 32.7563C80.5204 32.6655 80.5857 32.5854 80.6651 32.521L91.2067 22.6953C91.2837 22.6223 91.3754 22.5665 91.4757 22.5318C91.576 22.497 91.6825 22.4841 91.7882 22.4939C91.8924 22.5037 91.9934 22.5353 92.0846 22.5867C92.1758 22.6381 92.2552 22.7082 92.3175 22.7923L102.501 36.4528C102.56 36.5312 102.603 36.6204 102.627 36.7153C102.651 36.8102 102.657 36.9089 102.643 37.0059C102.629 37.1029 102.596 37.1962 102.546 37.2805C102.496 37.3648 102.431 37.4385 102.352 37.4973C102.223 37.5941 102.066 37.6465 101.905 37.6465Z" fill="#DFEAEF"/>
<path d="M97.2305 8.84089H83.1178C82.9201 8.84089 82.7305 8.76228 82.5906 8.62237C82.4508 8.48246 82.3723 8.29269 82.3723 8.09482C82.3723 7.89695 82.4508 7.70719 82.5906 7.56727C82.7305 7.42736 82.9201 7.34875 83.1178 7.34875H97.2305C97.4282 7.34875 97.6178 7.42736 97.7576 7.56727C97.8974 7.70719 97.976 7.89695 97.976 8.09482C97.976 8.29269 97.8974 8.48246 97.7576 8.62237C97.6178 8.76228 97.4282 8.84089 97.2305 8.84089Z" fill="#DFEAEF"/>
<path d="M114.124 59.4018L95.2623 54.4031C95.154 54.3747 95.0401 54.3752 94.932 54.4045C94.824 54.4337 94.7255 54.4908 94.6463 54.5701C94.5671 54.6493 94.5101 54.7479 94.4808 54.856C94.4515 54.9642 94.4511 55.0781 94.4795 55.1865L99.4744 74.062C99.5031 74.1712 99.56 74.2709 99.6394 74.3511C99.7189 74.4313 99.8181 74.489 99.927 74.5186C100.036 74.5481 100.151 74.5483 100.26 74.5192C100.369 74.4901 100.468 74.4328 100.548 74.3529L104.641 70.257L112.938 78.5607C112.998 78.6208 113.069 78.6684 113.147 78.7009C113.225 78.7334 113.309 78.7501 113.393 78.7501C113.478 78.7501 113.561 78.7334 113.64 78.7009C113.718 78.6684 113.788 78.6208 113.848 78.5607L118.619 73.7859C118.679 73.7263 118.727 73.6554 118.759 73.5773C118.792 73.4992 118.809 73.4154 118.809 73.3308C118.809 73.2462 118.792 73.1625 118.759 73.0844C118.727 73.0063 118.679 72.9354 118.619 72.8757L110.322 64.572L114.415 60.4761C114.494 60.3963 114.552 60.2968 114.581 60.1876C114.61 60.0785 114.61 59.9637 114.58 59.8547C114.551 59.7457 114.493 59.6464 114.413 59.5669C114.333 59.4874 114.233 59.4304 114.124 59.4018Z" fill="white"/>
<path d="M113.393 79.4933C113.027 79.4933 112.676 79.3485 112.417 79.0905L104.641 71.309L101.077 74.8827C100.904 75.0545 100.69 75.178 100.454 75.2408C100.219 75.3037 99.9708 75.3037 99.7354 75.2408C99.4999 75.1782 99.2853 75.054 99.1136 74.8809C98.942 74.7078 98.8195 74.4921 98.7588 74.256L93.7563 55.373C93.6945 55.138 93.6955 54.8908 93.7591 54.6563C93.8228 54.4217 93.9469 54.208 94.119 54.0365C94.2911 53.865 94.5052 53.7418 94.7399 53.6791C94.9745 53.6165 95.2215 53.6166 95.4561 53.6795L114.318 58.6856C114.553 58.7482 114.768 58.8716 114.94 59.0435C115.112 59.2154 115.237 59.4297 115.3 59.6648C115.364 59.8999 115.364 60.1477 115.302 60.3831C115.239 60.6185 115.116 60.8332 114.944 61.0058L111.38 64.572L119.149 72.346C119.407 72.6085 119.552 72.9623 119.552 73.3308C119.552 73.6994 119.407 74.0532 119.149 74.3156L114.377 79.0905C114.115 79.3489 113.761 79.4936 113.393 79.4933ZM104.641 69.5035C104.739 69.503 104.836 69.5218 104.927 69.5589C105.018 69.596 105.101 69.6507 105.17 69.7199L113.371 77.9266L118.001 73.301L109.8 65.0943C109.661 64.9545 109.583 64.7654 109.583 64.5683C109.583 64.3712 109.661 64.1821 109.8 64.0423L113.759 60.0732L95.2399 55.1567L100.153 73.689L104.141 69.7273C104.274 69.5921 104.452 69.5121 104.641 69.5035Z" fill="#093F68"/>
<path d="M125.254 110H2.51239C2.31467 110 2.12504 109.921 1.98523 109.781C1.84542 109.642 1.76688 109.452 1.76688 109.254C1.76688 109.056 1.84542 108.866 1.98523 108.726C2.12504 108.586 2.31467 108.508 2.51239 108.508H125.254C125.452 108.508 125.642 108.586 125.782 108.726C125.921 108.866 126 109.056 126 109.254C126 109.452 125.921 109.642 125.782 109.781C125.642 109.921 125.452 110 125.254 110Z" fill="#093F68"/>
</svg>
