<svg width="165" height="109" viewBox="0 0 165 109" fill="none" xmlns="http://www.w3.org/2000/svg">
<path d="M164.362 53.499C164.487 51.8977 164.456 50.2881 164.269 48.6929C163.518 42.6759 160.621 37.1319 156.111 33.0782C151.47 28.9993 148.206 30.2369 142.503 29.221C140.198 28.8168 137.824 29.1151 135.691 30.077C135.99 21.2693 132.53 14.0911 125.573 8.68167C111.315 -2.37956 94.5811 2.2151 83.4477 14.7924C78.3322 5.48448 70.5094 -1.34305 59.1491 0.595885C49.3822 2.26151 41.2242 10.863 40.0691 20.7072C35.9437 19.1602 31.1634 19.8821 27.1772 21.8159C23.1911 23.7497 19.8237 26.7561 16.6678 29.8707C12.8621 33.6197 9.18017 37.6729 7.0659 42.577C5.63233 45.9031 5.62717 49.3065 5.58591 52.8544C5.58591 53.4422 6.74103 62.3531 7.77238 61.4868C-7.85773 74.6107 7.32889 98.8474 23.6139 102.457C30.8334 104.061 38.8934 102.318 44.3801 97.3416C51.0692 101.855 58.564 105.04 66.4562 106.722C77.3627 109.047 89.0582 109.94 99.81 106.402C102.543 105.505 104.936 104.128 107.545 102.947C110.701 101.513 111.206 102.772 114.491 103.829C120.009 105.603 126.12 105.03 131.591 103.365C137.439 101.586 143.622 97.5737 144.05 91.4733C150.289 91.9013 156.844 89.163 160.268 83.9341C163.692 78.7052 163.362 71.0732 158.932 66.6641C159.742 67.4686 163.511 59.1147 163.682 58.336C164.026 56.7425 164.254 55.1258 164.362 53.499Z" fill="white"/>
<path d="M84.0304 108.996C78.0975 108.926 72.1883 108.234 66.3995 106.933C58.5447 105.247 51.0803 102.089 44.4008 97.6253C39.0326 102.4 31.0654 104.329 23.5572 102.669C13.7594 100.498 4.14204 90.7204 1.61524 80.4069C-0.194781 73.0637 1.80604 66.36 7.24125 61.6054C6.13255 60.3523 5.32294 53.1587 5.3281 52.839V52.5914C5.36935 49.0745 5.4106 45.7587 6.82871 42.4584C8.98423 37.4822 12.7435 33.3568 16.4873 29.6852C19.5917 26.653 23.0106 23.5228 27.0586 21.5684C31.4161 19.4593 36.0572 18.9901 39.8577 20.336C41.1572 10.5381 49.377 1.99341 59.1078 0.327782C68.9882 -1.35848 77.4194 3.48371 83.4992 14.3387C89.1407 8.08869 96.1591 3.91172 103.291 2.61738C111.191 1.1838 118.926 3.2104 125.728 8.47545C132.7 13.8849 136.139 21.0167 135.959 29.68C138.045 28.8265 140.329 28.5798 142.549 28.9684C143.985 29.2171 145.432 29.3892 146.886 29.484C150.253 29.7367 152.909 29.9327 156.282 32.9133C160.835 37.0113 163.764 42.61 164.532 48.6878C164.721 50.3002 164.752 51.927 164.625 53.5454C164.506 55.1774 164.272 56.799 163.924 58.3979C163.79 59.0064 160.861 65.7463 159.432 66.8292C163.506 71.2382 163.991 78.6897 160.464 84.0786C157.163 89.1219 150.831 92.1128 144.266 91.7518C143.854 95.805 140.342 100.972 131.643 103.612C127.265 104.943 120.715 106.108 114.393 104.076C113.65 103.833 112.92 103.549 112.207 103.226C110.629 102.529 109.835 102.194 107.633 103.184C106.823 103.55 106.019 103.948 105.245 104.329C103.515 105.226 101.725 106.001 99.8874 106.65C94.7606 108.272 89.4073 109.064 84.0304 108.996ZM44.3802 97.0632C44.4309 97.0649 44.4805 97.0791 44.5245 97.1045C51.1891 101.593 58.651 104.765 66.5078 106.449C79.6884 109.259 90.5588 109.156 99.7327 106.139C101.541 105.498 103.302 104.731 105.003 103.844C105.782 103.463 106.586 103.066 107.406 102.694C109.814 101.596 110.789 102.024 112.403 102.731C113.097 103.046 113.808 103.324 114.533 103.561C120.721 105.556 127.167 104.412 131.478 103.097C140.11 100.472 143.483 95.3615 143.761 91.4372C143.763 91.4034 143.772 91.3702 143.786 91.3397C143.801 91.3091 143.822 91.2818 143.847 91.2593C143.873 91.2368 143.902 91.2195 143.934 91.2084C143.966 91.1974 144 91.1928 144.034 91.1949C150.501 91.6383 156.777 88.7248 160.02 83.7691C163.501 78.4628 162.929 71.0165 158.721 66.8241C158.697 66.8001 158.677 66.7716 158.664 66.7402C158.651 66.7087 158.644 66.675 158.644 66.641C158.644 66.607 158.651 66.5733 158.664 66.5418C158.677 66.5104 158.697 66.4819 158.721 66.4579C158.764 66.4156 158.821 66.3898 158.881 66.3851C158.941 66.3804 159.001 66.397 159.051 66.4322C159.896 66.1537 163.176 59.3055 163.398 58.2639C163.745 56.6895 163.976 55.0917 164.089 53.4836C164.216 51.8978 164.184 50.3035 163.996 48.7239C163.254 42.7633 160.387 37.2704 155.921 33.2536C152.682 30.3916 150.104 30.1957 146.834 29.9533C145.362 29.8595 143.895 29.6873 142.441 29.4376C140.188 29.044 137.868 29.3369 135.784 30.2782C135.743 30.2969 135.699 30.3049 135.654 30.3014C135.61 30.2978 135.567 30.2829 135.53 30.258C135.494 30.233 135.464 30.199 135.444 30.1592C135.424 30.1194 135.415 30.0751 135.417 30.0307C135.711 21.3622 132.323 14.2355 125.398 8.84673C118.73 3.68998 111.108 1.67885 103.368 3.08664C96.2622 4.41708 89.249 8.60436 83.6436 14.9523C83.6153 14.9822 83.5807 15.0055 83.5424 15.0206C83.5041 15.0357 83.463 15.0423 83.4219 15.04C83.3802 15.0349 83.3403 15.0202 83.3054 14.9969C83.2704 14.9736 83.2415 14.9424 83.2208 14.9059C75.6713 1.17864 65.9869 -0.32197 59.1955 0.838299C49.573 2.47815 41.4614 11.028 40.327 20.7227C40.3226 20.7614 40.3094 20.7986 40.2883 20.8314C40.2672 20.8642 40.2388 20.8916 40.2054 20.9116C40.1719 20.9315 40.1343 20.9435 40.0954 20.9465C40.0566 20.9496 40.0176 20.9436 39.9814 20.929C36.2583 19.5264 31.6327 19.9492 27.2855 22.0119C23.3148 23.956 19.9165 27.0243 16.8483 30.0564C13.1406 33.7074 9.42256 37.7916 7.30313 42.6802C5.92628 45.8825 5.88503 49.1519 5.84377 52.6121V52.8596C5.84377 53.7775 6.91638 60.7907 7.62285 61.2754C7.67519 61.2379 7.73967 61.2213 7.80361 61.229C7.86755 61.2366 7.92632 61.2679 7.96835 61.3167C8.01201 61.3697 8.03321 61.4376 8.02742 61.506C8.02164 61.5744 7.98934 61.6379 7.93741 61.6828C2.38359 66.36 0.320895 72.9606 2.11544 80.2832C4.601 90.4214 14.0688 100.034 23.6707 102.163C31.0861 103.808 38.9553 101.869 44.2048 97.1097C44.2557 97.0735 44.318 97.057 44.3802 97.0632Z" fill="#093F68"/>
<path d="M59.0666 78.7361C53.8016 78.7361 53.7706 77.9678 52.7909 75.1264C51.0272 70.0006 47.696 66.066 44.2203 62.0283C31.3285 47.0737 35.7323 23.6775 57.6691 19.7429C72.5412 17.0563 84.9741 24.9255 87.5216 39.4004C88.785 46.5838 87.1864 53.401 83.1641 59.4396C80.4259 63.565 78.1672 67.7265 77.3782 72.6718C76.8626 75.8587 77.1049 77.7409 71.5099 77.7409C69.4833 77.7409 67.4618 78.0554 65.4404 78.2256C63.3158 78.3442 61.1964 78.7361 59.0666 78.7361Z" fill="white"/>
<path d="M59.0665 78.9682C54.0284 78.9682 53.6107 78.3133 52.6619 75.5235L52.5484 75.178C50.7642 69.9903 47.3349 66.0144 44.0243 62.1675C37.2535 54.3086 35.0103 43.8765 38.1766 34.9399C41.1056 26.6891 48.0105 21.1662 57.6227 19.4284C65.2185 18.0618 72.4432 19.4284 77.9609 23.2701C83.1743 26.8799 86.5726 32.4491 87.7587 39.2973C88.9995 46.3558 87.422 53.6193 83.3651 59.5272C80.9879 63.0906 78.4508 67.4325 77.6154 72.6563C77.5741 72.9193 77.538 73.172 77.5019 73.4247C77.1049 76.1423 76.847 77.942 71.4943 77.942C70.115 77.9672 68.7379 78.0653 67.3689 78.2359C66.7243 78.303 66.0849 78.37 65.4403 78.4267C64.7183 78.4886 64.0016 78.566 63.2796 78.6485C61.8825 78.8352 60.4758 78.9419 59.0665 78.9682ZM63.3105 19.4335C61.4338 19.437 59.5612 19.6096 57.7155 19.9492C48.2941 21.6509 41.5284 27.0397 38.6355 35.1255C35.5415 43.892 37.7382 54.123 44.3904 61.8426C47.732 65.7257 51.1922 69.7376 53.0074 75.0233L53.126 75.3688C53.9768 77.8698 54.1831 78.4628 59.0408 78.4628C60.4378 78.4357 61.8323 78.3307 63.2177 78.1483C63.9397 78.0657 64.6668 77.9832 65.3939 77.9214C66.0333 77.8698 66.6728 77.8028 67.3122 77.7306C68.6967 77.5595 70.0892 77.4614 71.484 77.4366C76.3881 77.4366 76.584 76.0752 76.9811 73.3576C77.0172 73.1101 77.0533 72.842 77.0997 72.5841C77.9454 67.2675 80.5186 62.8585 82.9268 59.2488C87.0264 53.0968 88.4755 46.4188 87.243 39.3953C86.0621 32.6915 82.7412 27.2615 77.6412 23.7033C73.4151 20.8444 68.4122 19.3538 63.3105 19.4335Z" fill="#FFDF4B"/>
<path d="M56.589 85.1158L75.4038 83.5623C76.1872 83.4976 76.7698 82.8101 76.7052 82.0267L76.4315 78.7119C76.3668 77.9285 75.6793 77.3459 74.8959 77.4106L56.0811 78.9641C55.2977 79.0288 54.7151 79.7163 54.7798 80.4996L55.0534 83.8145C55.1181 84.5978 55.8056 85.1805 56.589 85.1158Z" fill="white"/>
<path d="M56.4675 85.3832C56.0449 85.3832 55.6377 85.224 55.3271 84.9373C55.0165 84.6506 54.8253 84.2575 54.7916 83.8361L54.5183 80.5255C54.5007 80.3047 54.5267 80.0826 54.5949 79.8719C54.6631 79.6612 54.7722 79.466 54.9158 79.2975C55.0595 79.1289 55.2349 78.9903 55.4322 78.8896C55.6294 78.7888 55.8445 78.7279 56.0653 78.7103L74.8771 77.1633C75.3227 77.1291 75.7637 77.2726 76.1038 77.5624C76.4439 77.8523 76.6555 78.265 76.6923 78.7103L76.9656 82.021C76.9833 82.2417 76.9572 82.4638 76.889 82.6745C76.8208 82.8852 76.7118 83.0804 76.5681 83.249C76.4244 83.4176 76.249 83.5562 76.0517 83.6569C75.8545 83.7576 75.6394 83.8185 75.4186 83.8361L56.6068 85.3832H56.4675ZM75.0061 77.6687H74.9132L56.1014 79.2157C55.9486 79.228 55.7998 79.2704 55.6634 79.3404C55.5271 79.4103 55.4058 79.5065 55.3067 79.6234C55.2075 79.7403 55.1324 79.8755 55.0856 80.0215C55.0388 80.1674 55.0213 80.3212 55.034 80.4739L55.3073 83.7846C55.3336 84.0926 55.4806 84.3777 55.7163 84.5777C55.9521 84.7777 56.2573 84.8763 56.5655 84.852L75.3773 83.305C75.5301 83.2926 75.6789 83.2503 75.8153 83.1803C75.9517 83.1103 76.0729 83.0142 76.1721 82.8973C76.2712 82.7804 76.3464 82.6451 76.3931 82.4992C76.4399 82.3532 76.4575 82.1995 76.4448 82.0467L76.1663 78.7361C76.1418 78.4452 76.0089 78.1741 75.7941 77.9764C75.5792 77.7787 75.298 77.6689 75.0061 77.6687Z" fill="#FFDF4B"/>
<path d="M57.1004 91.2632L75.9152 89.7097C76.6986 89.645 77.2812 88.9575 77.2166 88.1742L76.9429 84.8593C76.8782 84.0759 76.1907 83.4933 75.4073 83.558L56.5925 85.1115C55.8091 85.1762 55.2265 85.8637 55.2912 86.647L55.5649 89.9619C55.6295 90.7452 56.317 91.3279 57.1004 91.2632Z" fill="white"/>
<path d="M56.978 91.5352C56.5553 91.5353 56.1482 91.3761 55.8376 91.0894C55.527 90.8027 55.3358 90.4095 55.3021 89.9882L55.0288 86.6724C55.0112 86.4519 55.0372 86.2301 55.1055 86.0197C55.1738 85.8093 55.2829 85.6144 55.4266 85.4463C55.5703 85.2781 55.7458 85.14 55.943 85.0398C56.1402 84.9396 56.3553 84.8793 56.5758 84.8624L75.3876 83.3153C75.6084 83.2977 75.8305 83.3238 76.0412 83.392C76.2519 83.4602 76.4471 83.5692 76.6157 83.7129C76.7842 83.8565 76.9228 84.032 77.0236 84.2292C77.1243 84.4264 77.1852 84.6416 77.2028 84.8624L77.4761 88.1782C77.4937 88.3989 77.4677 88.621 77.3995 88.8317C77.3313 89.0424 77.2222 89.2376 77.0786 89.4062C76.9349 89.5748 76.7595 89.7134 76.5622 89.8141C76.365 89.9148 76.1499 89.9758 75.9291 89.9933L57.1173 91.5404H56.978V91.5352ZM75.5165 83.8207H75.4186L56.6067 85.3677C56.2991 85.394 56.0145 85.5412 55.8153 85.7771C55.6162 86.013 55.5187 86.3183 55.5444 86.626L55.8178 89.9418C55.844 90.2494 55.9912 90.534 56.2272 90.7332C56.4631 90.9323 56.7683 91.0298 57.076 91.0041L75.8878 89.457C76.0404 89.4447 76.189 89.4023 76.3251 89.3323C76.4612 89.2623 76.5821 89.166 76.6809 89.049C76.7796 88.9321 76.8542 88.7967 76.9005 88.6508C76.9467 88.5049 76.9635 88.3513 76.9501 88.1988L76.6768 84.883C76.6499 84.5934 76.5162 84.3243 76.3017 84.1279C76.0872 83.9315 75.8073 83.822 75.5165 83.8207Z" fill="#FFDF4B"/>
<path d="M58.1074 91.1896C58.2982 93.5102 62.2328 95.0778 66.848 94.6911C71.4633 94.3043 75.0988 92.1127 74.8977 89.8025L58.1074 91.1896Z" fill="#FFDF4B"/>
<path d="M65.43 95.0109C61.253 95.0109 58.0352 93.4639 57.8496 91.2104C57.8453 91.1423 57.8676 91.0751 57.9119 91.0232C57.9561 90.9712 58.0189 90.9385 58.0868 90.9319L74.8772 89.5654C74.9453 89.5611 75.0124 89.5834 75.0644 89.6277C75.1164 89.6719 75.1491 89.7347 75.1556 89.8026C75.3619 92.2985 71.7212 94.5726 66.8687 94.9594C66.3806 94.9938 65.901 95.0109 65.43 95.0109ZM58.4014 91.4012C58.6025 92.3191 59.4791 93.1236 60.9075 93.696C62.8016 94.378 64.825 94.6248 66.8275 94.4179C71.1334 94.0621 74.5368 92.1386 74.6451 90.0605L58.4014 91.4012Z" fill="#FFDF4B"/>
<path d="M60.0464 75.6009C60.012 75.5989 59.9784 75.5901 59.9475 75.575C59.9166 75.5599 59.8891 75.5387 59.8665 75.5127C59.8439 75.4868 59.8268 75.4566 59.816 75.4239C59.8053 75.3912 59.8012 75.3567 59.804 75.3224C60.218 69.9693 59.9634 64.5854 59.046 59.2953C57.6619 58.9866 56.32 58.5122 55.0495 57.8823C52.8231 56.8644 50.939 55.2239 49.6246 53.1587C48.289 50.9001 48.0776 48.1825 49.0264 46.0682C49.1605 45.7049 49.3831 45.3808 49.6739 45.1251C49.9647 44.8694 50.3146 44.6902 50.692 44.6037C52.2855 44.284 54.0027 45.7382 54.4874 46.192C57.5196 49.0075 58.489 53.8497 59.2677 57.7379L59.3657 58.2536L59.4895 58.8879C62.0207 59.4086 64.6314 59.4086 67.1627 58.8879C67.2208 57.6017 67.3586 56.3204 67.5752 55.0513C68.2817 50.9259 69.3543 47.8576 70.7724 45.9651C71.2259 45.4446 71.7813 45.0228 72.4044 44.7257C73.0275 44.4287 73.7049 44.2627 74.3947 44.238C75.0846 44.2134 75.7721 44.3306 76.4148 44.5824C77.0575 44.8342 77.6416 45.2153 78.1311 45.7021C78.6931 46.4219 79.064 47.2721 79.2091 48.1737C79.3543 49.0753 79.269 49.999 78.9613 50.8588C78.3419 52.5354 77.282 54.0139 75.8931 55.1389C73.5367 57.1992 70.699 58.6322 67.6423 59.3056C67.4566 64.2715 68.2972 69.2736 69.1171 74.1467L69.2202 74.7552C69.2308 74.8227 69.2146 74.8918 69.1751 74.9476C69.1357 75.0034 69.076 75.0417 69.0088 75.0543C68.9419 75.0647 68.8735 75.0484 68.8185 75.0088C68.7635 74.9693 68.7263 74.9096 68.7149 74.8428L68.6117 74.2344C67.7918 69.3767 66.9564 64.385 67.1214 59.419C64.629 59.92 62.0626 59.9288 59.5668 59.4448C60.4642 64.7112 60.7102 70.0681 60.2991 75.3946C60.2863 75.4524 60.2544 75.5042 60.2086 75.5417C60.1627 75.5791 60.1056 75.6 60.0464 75.6009ZM51.1355 45.0729C51.0144 45.0745 50.8936 45.0866 50.7745 45.109C50.479 45.1823 50.2061 45.3275 49.9803 45.5317C49.7545 45.736 49.5827 45.9929 49.4802 46.2796C49.0463 47.3492 48.8719 48.5065 48.9714 49.6565C49.0709 50.8065 49.4414 51.9165 50.0526 52.8957C51.3198 54.8741 53.1296 56.4459 55.2661 57.4234C56.4337 57.9979 57.6617 58.4407 58.9274 58.7435C58.9016 58.6094 58.8706 58.4702 58.8449 58.3361L58.7469 57.8204C57.9785 54.0044 57.0297 49.2602 54.1058 46.5529C53.3117 45.8155 52.1462 45.0729 51.1355 45.0729ZM74.5781 44.7017H74.3873C73.7721 44.7033 73.1649 44.8404 72.6087 45.1034C72.0526 45.3663 71.5612 45.7485 71.1695 46.2229C69.8029 48.0535 68.7613 51.0341 68.0754 55.0873C67.8741 56.2924 67.7415 57.5079 67.6784 58.728C70.5918 58.0563 73.2947 56.6766 75.5476 54.7109C76.8661 53.6437 77.8741 52.2421 78.4663 50.6525C78.7427 49.8798 78.8209 49.0502 78.6939 48.2394C78.5669 47.4286 78.2386 46.6626 77.7392 46.0115C77.335 45.5818 76.8442 45.2429 76.2993 45.0171C75.7544 44.7913 75.1677 44.6838 74.5781 44.7017Z" fill="#093F68"/>
<path d="M81.6221 76.8075C81.8336 75.9876 82.0347 75.1728 82.2513 74.3581C82.3647 73.9352 82.4988 73.5175 82.6328 73.0998C82.7006 72.8376 82.8577 72.6071 83.0769 72.4481C83.2962 72.289 83.564 72.2113 83.8344 72.2283C84.4841 72.2283 85.1287 72.3315 85.7785 72.383C86.1199 72.4325 86.4652 72.4498 86.8098 72.4346C87.0675 72.4223 87.3131 72.3223 87.506 72.151C88.1867 71.3878 88.8364 70.604 89.4759 69.7995C89.5817 69.6521 89.6493 69.4807 89.6727 69.3007C89.6961 69.1207 89.6745 68.9378 89.6099 68.7682C89.3882 67.9998 89.1355 67.2211 88.9138 66.4786C88.8194 66.1831 88.7674 65.8758 88.7591 65.5658C88.7588 65.452 88.781 65.3391 88.8243 65.2338C88.8677 65.1285 88.9314 65.0328 89.0118 64.9522C90.1374 64.0829 91.3873 63.3876 92.7194 62.8895C92.9154 62.8091 93.1325 62.7959 93.3368 62.8518C93.5411 62.9078 93.7211 63.0298 93.8488 63.1989C94.3954 63.8332 94.9626 64.452 95.4886 65.1017C95.6596 65.3519 95.9003 65.5464 96.1808 65.6609C96.4613 65.7755 96.7693 65.8052 97.0666 65.7463C97.9071 65.6174 98.7632 65.5349 99.6089 65.4266C99.7643 65.4066 99.9126 65.3493 100.041 65.2595C100.169 65.1697 100.274 65.0501 100.346 64.9109C100.614 64.4365 100.862 63.9518 101.125 63.4773C101.388 63.0029 101.568 62.6574 101.811 62.2552C101.911 62.0488 102.081 61.8841 102.29 61.7899C102.499 61.6956 102.735 61.6778 102.956 61.7395C104.167 62.0541 105.379 62.379 106.565 62.7348C106.794 62.804 106.991 62.9503 107.124 63.1487C107.256 63.3471 107.316 63.5854 107.292 63.8228C107.292 64.4829 107.184 65.1378 107.133 65.7979C107.107 66.1073 107.086 66.4167 107.086 66.7313C107.081 66.9286 107.121 67.1244 107.204 67.3034C107.288 67.4824 107.411 67.6396 107.566 67.7626C108.236 68.2783 108.912 68.83 109.556 69.3921C109.744 69.5634 109.975 69.68 110.224 69.7291C110.473 69.7782 110.731 69.758 110.969 69.6706C111.799 69.4231 112.619 69.1549 113.45 68.9022C113.718 68.7876 114.021 68.7816 114.294 68.8854C114.567 68.9893 114.789 69.1949 114.914 69.4592C115.476 70.4286 116.018 71.4033 116.544 72.3934C116.641 72.5242 116.711 72.6736 116.748 72.8322C116.786 72.9909 116.791 73.1556 116.763 73.3162C116.735 73.4769 116.675 73.6301 116.585 73.7667C116.496 73.9033 116.38 74.0203 116.245 74.1106C115.837 74.487 115.394 74.8222 114.976 75.1883C114.677 75.4462 114.383 75.704 114.104 76.0031C113.985 76.1197 113.893 76.2621 113.837 76.4193C113.781 76.5766 113.761 76.7446 113.78 76.9107C113.872 77.7873 113.955 78.6691 114.068 79.5509C114.092 79.7904 114.179 80.0194 114.319 80.2149C114.459 80.4104 114.648 80.5656 114.868 80.6648C115.383 80.9175 115.899 81.1547 116.384 81.4125C116.7 81.566 117.006 81.7382 117.302 81.9282C117.521 82.0392 117.694 82.2249 117.788 82.4518C117.883 82.6787 117.893 82.9319 117.817 83.1658C117.525 84.2693 117.207 85.3712 116.863 86.4713C116.806 86.6368 116.732 86.7958 116.642 86.9457C116.559 87.1246 116.423 87.2731 116.252 87.3703C116.081 87.4675 115.883 87.5084 115.688 87.4872L113.362 87.2912C113.305 87.2912 113.243 87.2912 113.187 87.2912C112.86 87.231 112.523 87.2706 112.219 87.4049C111.916 87.5392 111.66 87.762 111.485 88.0441C111.093 88.5907 110.639 89.0754 110.211 89.5911C110.012 89.8203 109.88 90.0995 109.828 90.3985C109.776 90.6975 109.807 91.0049 109.917 91.2877C110.165 92.0148 110.407 92.7419 110.619 93.4793C110.83 94.2167 110.717 94.6138 110.02 95.0263C109.02 95.609 108.004 96.1608 106.978 96.6971C106.755 96.8499 106.481 96.9091 106.215 96.8618C105.948 96.8146 105.711 96.6647 105.555 96.4444C105.101 95.9597 104.683 95.444 104.26 94.9387C103.348 93.8454 103.131 93.7629 101.718 93.9434L100.068 94.1703C99.8052 94.1964 99.5536 94.2892 99.337 94.4399C99.1204 94.5907 98.9459 94.7943 98.8302 95.0315C98.5363 95.6142 98.263 96.2072 97.9536 96.7796C97.7892 97.0769 97.5976 97.3583 97.3812 97.6202C97.2866 97.7533 97.1525 97.8533 96.998 97.906C96.8434 97.9588 96.6762 97.9616 96.52 97.9141C95.3752 97.5892 94.2252 97.2644 93.0753 96.9292C92.9191 96.8778 92.77 96.8067 92.6318 96.7177C92.4544 96.6325 92.3085 96.4933 92.2149 96.3201C92.1214 96.1469 92.085 95.9486 92.111 95.7534C92.1728 94.9851 92.2399 94.2064 92.3018 93.4587C92.3018 93.2215 92.3018 92.9894 92.3018 92.7574C92.3078 92.5667 92.269 92.3773 92.1883 92.2044C92.1077 92.0315 91.9876 91.88 91.8376 91.7621C91.1879 91.2464 90.5433 90.7308 89.8936 90.2151C89.7101 90.0619 89.4888 89.9609 89.2529 89.9228C89.017 89.8847 88.7751 89.9109 88.5528 89.9985C87.8257 90.2409 87.0883 90.4626 86.356 90.6947L86.2735 90.7204C85.3092 90.9731 84.9843 90.8751 84.4893 90.0088C83.9427 89.0497 83.4321 88.0647 82.9423 87.0746C82.7919 86.8462 82.7383 86.5674 82.7934 86.2996C82.8486 86.0317 83.0078 85.7967 83.2362 85.6462C83.7931 85.1305 84.3655 84.6561 84.9637 84.2023C85.2544 84.0042 85.4806 83.7251 85.6144 83.3998C85.7482 83.0744 85.7838 82.717 85.7166 82.3717C85.598 81.5827 85.5155 80.7885 85.4123 79.9996C85.3991 79.8348 85.345 79.6759 85.255 79.5372C85.165 79.3986 85.0418 79.2846 84.8967 79.2054C84.2005 78.8341 83.4992 78.4732 82.834 78.0967C82.3461 77.8993 81.9454 77.5333 81.7046 77.0654L81.6221 76.8075ZM107.256 79.2518C107.18 78.2551 106.906 77.2834 106.451 76.3931C105.997 75.5027 105.37 74.7114 104.607 74.065C103.845 73.4185 102.962 72.9296 102.009 72.6268C101.056 72.3239 100.053 72.213 99.0571 72.3005C97.0868 72.5156 95.2761 73.4842 94.0036 75.0037C92.7311 76.5232 92.0954 78.4759 92.2296 80.4534C92.3968 82.436 93.3378 84.273 94.8491 85.5672C96.3603 86.8613 98.3203 87.5084 100.305 87.3686C105.152 86.987 107.731 82.5522 107.256 79.2518Z" fill="#FFDF4B"/>
<path d="M88.4085 19.3046C88.5322 18.7889 88.656 18.3248 88.7849 17.8349C88.852 17.5823 88.9345 17.3193 89.017 17.0821C89.0593 16.927 89.1535 16.7911 89.284 16.6972C89.4145 16.6034 89.5733 16.5572 89.7338 16.5664C90.1257 16.5664 90.5124 16.6283 90.9043 16.6592C91.1126 16.6899 91.3233 16.7003 91.5335 16.6901C91.6883 16.6838 91.836 16.6236 91.9512 16.52C92.3637 16.061 92.7505 15.5866 93.1321 15.107C93.1967 15.0191 93.2385 14.9166 93.2538 14.8086C93.2691 14.7007 93.2574 14.5906 93.2197 14.4882C93.0805 14.0241 92.9309 13.5703 92.7969 13.1114C92.7406 12.9326 92.7093 12.7469 92.704 12.5596C92.7043 12.4914 92.7182 12.4239 92.7447 12.361C92.7713 12.2982 92.81 12.2412 92.8588 12.1935C93.5348 11.6712 94.2858 11.2539 95.0865 10.9558C95.2037 10.9076 95.3337 10.8996 95.456 10.9332C95.5782 10.9668 95.6859 11.0401 95.762 11.1415C96.092 11.5231 96.4324 11.8944 96.7469 12.2863C96.8515 12.4348 96.9965 12.5502 97.1647 12.6187C97.3329 12.6873 97.5172 12.7061 97.6958 12.673C98.2115 12.5957 98.7271 12.5441 99.2428 12.4771C99.3361 12.4647 99.4249 12.4295 99.5014 12.3747C99.5778 12.3198 99.6396 12.2469 99.6811 12.1625C99.841 11.8789 99.9905 11.5901 100.15 11.3013C100.31 11.0126 100.419 10.7857 100.563 10.5691C100.624 10.4467 100.726 10.3496 100.852 10.2949C100.977 10.2402 101.118 10.2314 101.249 10.27C101.981 10.4556 102.708 10.6516 103.43 10.863C103.566 10.9061 103.684 10.9946 103.763 11.1138C103.841 11.233 103.877 11.3757 103.863 11.5179C103.863 11.915 103.801 12.3069 103.77 12.704C103.77 12.8896 103.739 13.0804 103.739 13.2661C103.735 13.3863 103.758 13.5059 103.808 13.6152C103.859 13.7246 103.934 13.8205 104.028 13.8952C104.43 14.2201 104.838 14.5346 105.225 14.875C105.338 14.9775 105.477 15.0475 105.627 15.0775C105.776 15.1075 105.932 15.0963 106.076 15.0451C106.591 14.8904 107.066 14.7306 107.561 14.581C107.722 14.5108 107.905 14.5066 108.07 14.5692C108.234 14.6318 108.368 14.7564 108.442 14.9162C108.783 15.4989 109.108 16.0868 109.422 16.6747C109.48 16.7536 109.521 16.8434 109.543 16.9386C109.565 17.0338 109.568 17.1324 109.551 17.2287C109.534 17.325 109.498 17.4169 109.445 17.4989C109.392 17.5809 109.323 17.6513 109.242 17.706C108.999 17.9329 108.726 18.134 108.484 18.3506C108.241 18.5672 108.123 18.6703 107.968 18.8663C107.896 18.9362 107.84 19.0219 107.806 19.1167C107.772 19.2115 107.761 19.3129 107.772 19.4129C107.829 19.9286 107.875 20.4443 107.942 21.0012C107.959 21.1449 108.013 21.2819 108.098 21.3992C108.182 21.5166 108.296 21.6103 108.427 21.6716L109.34 22.115C109.525 22.213 109.711 22.311 109.886 22.4244C110.015 22.4943 110.115 22.6065 110.169 22.742C110.224 22.8775 110.23 23.0278 110.185 23.167C110 23.8271 109.814 24.482 109.618 25.1369C109.585 25.2365 109.54 25.3318 109.484 25.4205C109.435 25.5279 109.353 25.6174 109.25 25.6765C109.148 25.7356 109.03 25.7614 108.912 25.7506L107.488 25.6216H107.385C107.188 25.5827 106.983 25.6053 106.798 25.6865C106.614 25.7676 106.459 25.9034 106.354 26.0754C106.122 26.4003 105.838 26.6994 105.591 27.014C105.472 27.1546 105.393 27.3244 105.363 27.5058C105.332 27.6871 105.35 27.8734 105.415 28.0453C105.565 28.4785 105.709 28.9168 105.838 29.3603C105.881 29.4443 105.906 29.5365 105.91 29.6308C105.915 29.7251 105.899 29.8192 105.865 29.907C105.83 29.9948 105.777 30.0742 105.709 30.14C105.642 30.2058 105.561 30.2564 105.472 30.2885C104.874 30.6392 104.265 30.9692 103.647 31.3198C103.511 31.408 103.347 31.4411 103.188 31.4124C103.029 31.3836 102.887 31.2952 102.791 31.1651C102.523 30.8712 102.275 30.567 102.012 30.2627C101.465 29.6026 101.336 29.5511 100.465 29.6645L99.4749 29.7986C99.3171 29.8132 99.1658 29.8683 99.0357 29.9587C98.9056 30.049 98.801 30.1715 98.7323 30.3143C98.557 30.6598 98.3919 31.0156 98.2166 31.3456C98.1188 31.5286 98.0031 31.7013 97.8711 31.8613C97.8142 31.9409 97.7342 32.0009 97.6419 32.0332C97.5496 32.0655 97.4495 32.0685 97.3554 32.0418L95.2927 31.4488C95.1991 31.4153 95.1092 31.3721 95.0246 31.3198C94.9167 31.2709 94.8268 31.1893 94.7676 31.0867C94.7084 30.984 94.6829 30.8654 94.6946 30.7474C94.7306 30.2885 94.7719 29.8295 94.808 29.3706C94.808 29.2314 94.808 29.087 94.808 28.9477C94.8112 28.8333 94.7877 28.7196 94.7394 28.6158C94.6911 28.5119 94.6192 28.4208 94.5295 28.3496L93.359 27.4265C93.2493 27.334 93.1167 27.2727 92.9751 27.2491C92.8336 27.2255 92.6883 27.2405 92.5545 27.2924C92.1162 27.4368 91.6727 27.5709 91.2344 27.7101H91.1828C90.6053 27.8648 90.4093 27.8029 90.1102 27.2873C89.8111 26.7716 89.4759 26.1167 89.1768 25.5237C89.1301 25.4562 89.0974 25.3799 89.0809 25.2995C89.0644 25.219 89.0643 25.1361 89.0807 25.0556C89.0971 24.9752 89.1296 24.8989 89.1762 24.8313C89.2229 24.7637 89.2827 24.7063 89.3522 24.6625C89.6873 24.3634 90.0329 24.0695 90.3835 23.7961C90.5575 23.6768 90.693 23.5094 90.7736 23.3144C90.8542 23.1194 90.8763 22.9051 90.8373 22.6978C90.7651 22.2233 90.7187 21.7438 90.6568 21.2693C90.6473 21.1692 90.6131 21.073 90.5573 20.9893C90.5015 20.9056 90.4259 20.837 90.3371 20.7898C89.9194 20.568 89.4965 20.3514 89.0789 20.1245C88.7891 20.0102 88.5496 19.7962 88.4033 19.5212L88.4085 19.3046ZM103.812 20.764C103.765 20.1657 103.6 19.5826 103.327 19.0484C103.053 18.5142 102.677 18.0394 102.219 17.6515C101.761 17.2636 101.231 16.9703 100.659 16.7885C100.087 16.6067 99.4848 16.5399 98.887 16.5922C97.7017 16.7224 96.612 17.3039 95.8439 18.216C95.0758 19.1281 94.6882 20.3009 94.7616 21.4911C94.8617 22.6827 95.427 23.7869 96.3351 24.5648C97.2433 25.3427 98.4213 25.7316 99.6141 25.6474C100.213 25.6098 100.798 25.4527 101.336 25.1854C101.873 24.918 102.351 24.5458 102.743 24.0907C103.134 23.6356 103.43 23.1068 103.613 22.5354C103.797 21.9641 103.864 21.3618 103.812 20.764Z" fill="#FFDF4B"/>
<path d="M33.3035 83.0008L33.4479 73.6155L42.5598 75.8484L43.6531 81.7838L44.8752 88.4154L39.0378 85.6823L33.3035 83.0008Z" fill="white"/>
<path d="M44.8752 88.6732C44.8378 88.672 44.8009 88.6632 44.7669 88.6475L33.1952 83.2329C33.1508 83.211 33.1133 83.1772 33.0869 83.1354C33.0606 83.0935 33.0463 83.0451 33.0457 82.9956L33.19 73.6104C33.1925 73.5716 33.203 73.5337 33.2207 73.4991C33.2385 73.4645 33.2631 73.4339 33.2932 73.4093C33.3239 73.3865 33.3591 73.3706 33.3965 73.3626C33.4338 73.3546 33.4724 73.3547 33.5098 73.3628L42.6063 75.6009C42.6542 75.6122 42.6978 75.6372 42.7317 75.6729C42.7656 75.7087 42.7883 75.7535 42.7971 75.802L45.1124 88.369C45.1224 88.4156 45.1189 88.464 45.1025 88.5087C45.0861 88.5534 45.0573 88.5926 45.0196 88.6217C44.9769 88.6513 44.9271 88.6691 44.8752 88.6732ZM33.5613 82.8616L44.5349 88.0183L42.3381 76.1062L33.7006 73.9868L33.5613 82.8616Z" fill="#FFDF4B"/>
<path d="M38.3148 76.7204L35.229 79.1028L11.6379 48.5465L14.7238 46.1641L38.3148 76.7204Z" fill="white"/>
<path d="M35.2269 79.3653H35.1908C35.157 79.3624 35.1242 79.3522 35.0948 79.3352C35.0654 79.3183 35.0401 79.2951 35.0206 79.2674L11.4285 48.7085C11.4078 48.6816 11.3925 48.6509 11.3837 48.6182C11.3748 48.5855 11.3725 48.5513 11.3769 48.5177C11.3874 48.4508 11.4223 48.3901 11.4749 48.3475L14.5689 45.9651C14.595 45.9439 14.6251 45.9283 14.6574 45.9192C14.6897 45.9101 14.7235 45.9076 14.7568 45.9119C14.7901 45.9163 14.8221 45.9273 14.851 45.9445C14.8799 45.9616 14.905 45.9844 14.9248 46.0115L38.5169 76.5652C38.559 76.6187 38.5784 76.6866 38.5706 76.7542C38.5629 76.8218 38.5288 76.8837 38.4756 76.9262L35.3816 79.3086C35.338 79.3446 35.2834 79.3647 35.2269 79.3653ZM11.9906 48.595L35.2733 78.7362L37.9496 76.6735L14.6721 46.5272L11.9906 48.595Z" fill="#FFDF4B"/>
<path d="M14.7184 46.1661L18.9676 45.2946L42.5597 75.8484L38.3106 76.725L14.7184 46.1661Z" fill="#FFDF4B"/>
<path d="M38.3107 76.9829C38.2707 76.9825 38.2314 76.973 38.1956 76.9551C38.1599 76.9373 38.1287 76.9115 38.1044 76.8798L14.5123 46.326C14.4863 46.2908 14.4696 46.2496 14.4636 46.2063C14.4576 46.163 14.4625 46.1188 14.4779 46.0778C14.4932 46.0369 14.5186 46.0004 14.5516 45.9717C14.5846 45.943 14.6243 45.923 14.667 45.9135L18.9161 45.042C18.9635 45.0317 19.0128 45.0349 19.0584 45.0513C19.104 45.0677 19.1441 45.0967 19.174 45.1348L42.7661 75.6937C42.7922 75.7285 42.8091 75.7693 42.8152 75.8124C42.8212 75.8554 42.8163 75.8993 42.8009 75.94C42.7855 75.9806 42.76 76.0167 42.7269 76.0449C42.6937 76.0731 42.654 76.0924 42.6114 76.1011L38.3622 76.9777L38.3107 76.9829ZM15.1775 46.3363L38.4189 76.4414L42.106 75.6782L18.8852 45.5783L15.1775 46.3363Z" fill="#FFDF4B"/>
<path d="M9.71136 52.4418L11.6348 48.5536L35.227 79.1074L33.3035 82.9956L9.71136 52.4418Z" fill="#FFDF4B"/>
<path d="M33.3241 83.2586C33.2843 83.2571 33.2454 83.2472 33.2098 83.2294C33.1742 83.2116 33.1428 83.1864 33.1178 83.1555L9.50507 52.6017C9.47704 52.5625 9.4599 52.5165 9.45537 52.4685C9.45084 52.4205 9.45909 52.3722 9.47928 52.3284L11.4028 48.4351C11.4213 48.3954 11.4503 48.3615 11.4866 48.337C11.523 48.3124 11.5653 48.2982 11.609 48.2958C11.6521 48.2914 11.6955 48.298 11.7353 48.3152C11.775 48.3324 11.8097 48.3594 11.8359 48.3938L35.428 78.9476C35.4543 78.9883 35.4682 79.0358 35.4682 79.0842C35.4682 79.1327 35.4543 79.1801 35.428 79.2209L33.5097 83.1142C33.4899 83.1529 33.4606 83.186 33.4245 83.2104C33.3884 83.2347 33.3468 83.2495 33.3035 83.2534L33.3241 83.2586ZM10.0156 52.4367L33.2571 82.5418L34.9227 79.1641L11.6657 49.0333L10.0156 52.4367Z" fill="#FFDF4B"/>
<path d="M39.0378 85.6823L39.3988 83.9084L42.1937 81.7529L43.6531 81.7838L44.8752 88.4154L39.0378 85.6823Z" fill="#FFDF4B"/>
<path d="M44.8751 88.6733C44.8376 88.672 44.8008 88.6633 44.7668 88.6475L38.9242 85.9144C38.8728 85.8893 38.8313 85.8477 38.8061 85.7964C38.7808 85.7451 38.7734 85.6868 38.785 85.6308L39.1511 83.8568C39.1622 83.7971 39.1953 83.7438 39.2439 83.7073L42.0337 81.5518C42.0824 81.5179 42.1395 81.4983 42.1987 81.4951L43.6633 81.5311C43.7215 81.5315 43.7777 81.5524 43.822 81.5902C43.8663 81.6279 43.8959 81.68 43.9056 81.7374L45.1278 88.369C45.1377 88.4156 45.1342 88.464 45.1178 88.5087C45.1014 88.5534 45.0727 88.5926 45.0349 88.6217C44.9878 88.6541 44.9323 88.672 44.8751 88.6733ZM39.3264 85.5379L44.5347 87.9719L43.4415 82.0365L42.2761 82.0107L39.6307 84.0734L39.3264 85.5379Z" fill="#FFDF4B"/>
<path d="M23.3405 11.9665C15.0743 13.7147 9.38637 19.8924 10.6343 25.766C11.3562 29.1746 14.244 31.7323 18.1941 32.9339C19.5039 35.1719 22.1545 37.8431 27.5072 39.8181C25.8834 38.0768 24.6989 35.973 24.0522 33.6816C25.3283 33.6446 26.5986 33.4927 27.8475 33.2278C36.0983 31.4797 41.8017 25.3019 40.5589 19.4283C39.3161 13.5548 31.6016 10.2184 23.3405 11.9665Z" fill="white"/>
<path d="M27.502 40.0605C27.4731 40.0658 27.4434 40.0658 27.4144 40.0605C22.928 38.4052 19.7721 36.0846 18.0188 33.1504C13.8934 31.8561 11.0881 29.1901 10.3765 25.8175C9.08729 19.8151 14.8989 13.4878 23.2838 11.6984C31.6738 9.92445 39.5327 13.3588 40.8168 19.3613C42.1008 25.3638 36.2943 31.6859 27.9249 33.465C26.7686 33.7107 25.5941 33.8608 24.4131 33.9136C25.0734 36.0374 26.2012 37.9863 27.7135 39.617C27.7506 39.6528 27.7761 39.6988 27.7868 39.7492C27.7975 39.7997 27.7928 39.8521 27.7734 39.8998C27.7539 39.9476 27.7206 39.9884 27.6778 40.017C27.635 40.0457 27.5845 40.0608 27.533 40.0605H27.502ZM23.3766 12.214C15.2754 13.9364 9.67 19.9853 10.8818 25.7093C11.5574 28.9168 14.2492 31.459 18.2663 32.6863C18.327 32.7071 18.3795 32.7469 18.4158 32.7998C19.9629 35.4504 22.7166 37.6007 26.6099 39.1942C25.3132 37.5886 24.3569 35.7358 23.7995 33.7486C23.7893 33.7109 23.7879 33.6714 23.7952 33.6331C23.8025 33.5948 23.8184 33.5586 23.8418 33.5273C23.8651 33.496 23.8952 33.4705 23.9299 33.4525C23.9646 33.4346 24.0028 33.4247 24.0419 33.4238C25.3007 33.386 26.5536 33.2359 27.7857 32.9751C35.8972 31.2579 41.5129 25.2039 40.3011 19.4799C39.0893 13.7559 31.5037 10.502 23.3921 12.214H23.3766Z" fill="#FFDF4B"/>
<path d="M141.085 79.0249L102.105 65.9165L118.797 16.2879L149.897 26.7509L155.07 37.4409L141.085 79.0249Z" fill="#FFDF4B"/>
<path d="M141.1 79.2828H141.018L102.038 66.1692C102.006 66.1588 101.976 66.142 101.951 66.1199C101.925 66.0978 101.904 66.0708 101.889 66.0405C101.874 66.0102 101.866 65.9773 101.864 65.9436C101.862 65.9099 101.867 65.8761 101.878 65.8443L118.565 16.2158C118.589 16.1514 118.636 16.0987 118.698 16.0688C118.759 16.039 118.83 16.0344 118.895 16.0559L149.996 26.5138C150.028 26.525 150.058 26.5427 150.084 26.5657C150.11 26.5887 150.13 26.6167 150.145 26.6479L155.302 37.3378C155.328 37.4006 155.328 37.471 155.302 37.5338L141.312 79.1178C141.302 79.1502 141.285 79.1803 141.263 79.206C141.24 79.2317 141.213 79.2526 141.183 79.2674C141.156 79.2766 141.128 79.2819 141.1 79.2828ZM102.425 65.7567L140.92 78.7001L154.786 37.4461L149.712 26.9573L118.957 16.6438L102.425 65.7567Z" fill="#FFDF4B"/>
<path d="M137.16 81.5878L98.1805 68.4794L114.873 18.8508L145.973 29.3087L151.145 40.0038L137.16 81.5878Z" fill="white"/>
<path d="M137.16 81.8302C137.133 81.8351 137.105 81.8351 137.078 81.8302L98.098 68.7217C98.034 68.6994 97.9814 68.6529 97.9515 68.5921C97.9216 68.5313 97.9168 68.4611 97.9382 68.3968L114.625 18.7683C114.65 18.7032 114.697 18.6498 114.759 18.6187C114.789 18.6049 114.822 18.5977 114.855 18.5977C114.888 18.5977 114.92 18.6049 114.95 18.6187L146.056 29.0766C146.089 29.0876 146.119 29.1051 146.144 29.1282C146.17 29.1512 146.191 29.1793 146.205 29.2107L151.362 39.9007C151.375 39.9309 151.381 39.9633 151.381 39.9961C151.381 40.0288 151.375 40.0612 151.362 40.0915L137.377 81.6806C137.367 81.7124 137.35 81.7417 137.328 81.7666C137.306 81.7915 137.279 81.8114 137.248 81.825C137.219 81.8326 137.19 81.8343 137.16 81.8302ZM98.4848 68.2989L136.98 81.2475L150.846 39.9935L145.767 29.4943L115.033 19.1757L98.4848 68.2989Z" fill="#FFDF4B"/>
<path d="M145.973 29.3087L143.013 37.2655L151.146 40.0038L145.973 29.3087Z" fill="white"/>
<path d="M151.146 40.2565C151.118 40.2616 151.09 40.2616 151.063 40.2565L142.931 37.5183C142.898 37.5082 142.868 37.4916 142.843 37.4694C142.817 37.4472 142.796 37.42 142.781 37.3894C142.756 37.3248 142.756 37.2528 142.781 37.1882L145.741 29.2314C145.759 29.1835 145.791 29.142 145.832 29.1117C145.873 29.0815 145.922 29.064 145.973 29.0612C146.024 29.0602 146.073 29.0738 146.116 29.1003C146.159 29.1269 146.194 29.1652 146.216 29.2108L151.372 39.9007C151.395 39.9466 151.403 39.9983 151.396 40.0489C151.388 40.0996 151.366 40.1468 151.331 40.1843C151.281 40.2318 151.214 40.2577 151.146 40.2565ZM143.343 37.1057L150.65 39.5449L146.009 29.943L143.343 37.1057Z" fill="#FFDF4B"/>
<path d="M144.246 43.8095C144.218 43.8145 144.19 43.8145 144.163 43.8095L116.09 34.3572C116.026 34.3349 115.973 34.2883 115.943 34.2275C115.913 34.1667 115.909 34.0966 115.93 34.0323C115.94 33.9997 115.956 33.9695 115.978 33.9435C116 33.9174 116.027 33.896 116.057 33.8806C116.088 33.8652 116.121 33.8561 116.155 33.8538C116.189 33.8515 116.223 33.8561 116.255 33.8673L144.328 43.3093C144.397 43.3202 144.458 43.3579 144.498 43.414C144.539 43.4701 144.556 43.54 144.545 43.6084C144.534 43.6768 144.496 43.738 144.44 43.7786C144.384 43.8192 144.314 43.8359 144.246 43.825V43.8095Z" fill="#093F68"/>
<path d="M142.472 49.0849C142.445 49.0899 142.417 49.0899 142.389 49.0849L114.316 39.6429C114.252 39.6205 114.199 39.5742 114.168 39.5136C114.137 39.4531 114.131 39.383 114.151 39.318C114.161 39.2852 114.178 39.2549 114.201 39.2288C114.223 39.2027 114.25 39.1813 114.281 39.166C114.312 39.1506 114.345 39.1415 114.38 39.1393C114.414 39.137 114.448 39.1417 114.481 39.153L142.554 48.595C142.623 48.6059 142.684 48.6436 142.725 48.6997C142.765 48.7558 142.782 48.8257 142.771 48.8941C142.76 48.9624 142.722 49.0237 142.666 49.0643C142.61 49.1049 142.54 49.1216 142.472 49.1106V49.0849Z" fill="#093F68"/>
<path d="M140.698 54.3602C140.671 54.3653 140.643 54.3653 140.615 54.3602L112.542 44.9079C112.474 44.886 112.417 44.8379 112.384 44.774C112.351 44.7102 112.345 44.6359 112.367 44.5675C112.389 44.4992 112.437 44.4423 112.5 44.4094C112.564 44.3765 112.639 44.3703 112.707 44.3922L140.78 53.8342C140.814 53.8396 140.847 53.8517 140.876 53.8696C140.905 53.8876 140.93 53.9111 140.951 53.9389C140.971 53.9667 140.985 53.9982 140.993 54.0315C141.001 54.0649 141.002 54.0995 140.997 54.1333C140.991 54.1672 140.979 54.1996 140.961 54.2288C140.944 54.2581 140.92 54.2834 140.892 54.3035C140.864 54.3237 140.833 54.3381 140.8 54.3461C140.766 54.354 140.732 54.3553 140.698 54.3499V54.3602Z" fill="#093F68"/>
<path d="M138.924 59.6561C138.897 59.6612 138.869 59.6612 138.841 59.6561L110.768 50.2141C110.704 50.1918 110.651 50.1455 110.62 50.0849C110.589 50.0243 110.583 49.9542 110.603 49.8893C110.614 49.8565 110.63 49.8262 110.653 49.8001C110.675 49.774 110.703 49.7526 110.733 49.7372C110.764 49.7219 110.798 49.7128 110.832 49.7106C110.866 49.7083 110.901 49.713 110.933 49.7242L139.006 59.1405C139.075 59.1514 139.136 59.1891 139.177 59.2452C139.217 59.3013 139.234 59.3712 139.223 59.4396C139.212 59.5079 139.174 59.5692 139.118 59.6098C139.062 59.6504 138.992 59.6671 138.924 59.6561Z" fill="#093F68"/>
<path d="M137.15 64.9109C137.123 64.9159 137.095 64.9159 137.068 64.9109L108.994 55.4689C108.926 55.447 108.869 55.3988 108.836 55.335C108.803 55.2712 108.797 55.1969 108.819 55.1285C108.841 55.0601 108.889 55.0032 108.953 54.9704C109.017 54.9375 109.091 54.9313 109.159 54.9532L137.233 64.3952C137.301 64.4061 137.362 64.4438 137.403 64.4999C137.443 64.556 137.46 64.6259 137.449 64.6943C137.438 64.7627 137.401 64.8239 137.344 64.8645C137.288 64.9051 137.218 64.9218 137.15 64.9109Z" fill="#093F68"/>
<path d="M127.12 67.3913C127.093 67.3967 127.065 67.3967 127.038 67.3913L107.22 60.7339C107.186 60.7231 107.155 60.7057 107.128 60.6827C107.101 60.6598 107.078 60.6317 107.062 60.6001C107.046 60.5685 107.036 60.534 107.033 60.4985C107.03 60.4631 107.034 60.4274 107.045 60.3936C107.056 60.3597 107.073 60.3283 107.096 60.3012C107.119 60.2741 107.147 60.2517 107.179 60.2354C107.21 60.2192 107.245 60.2093 107.28 60.2063C107.316 60.2034 107.351 60.2074 107.385 60.2183L127.203 66.8808C127.267 66.9041 127.32 66.9517 127.35 67.0133C127.38 67.075 127.384 67.1458 127.363 67.2108C127.347 67.263 127.315 67.3088 127.271 67.3413C127.228 67.3738 127.175 67.3913 127.12 67.3913Z" fill="#093F68"/>
<path d="M95.5145 44.9182C95.2593 44.9182 95.0099 44.8424 94.7978 44.7005C94.5856 44.5586 94.4204 44.357 94.323 44.1211C94.2256 43.8853 94.2003 43.6258 94.2505 43.3756C94.3007 43.1253 94.424 42.8956 94.6048 42.7156C94.7856 42.5355 95.0158 42.4131 95.2662 42.3639C95.5166 42.3148 95.776 42.341 96.0115 42.4394C96.2469 42.5378 96.4479 42.7038 96.589 42.9165C96.73 43.1292 96.8047 43.3789 96.8037 43.6341C96.8023 43.9751 96.6659 44.3017 96.4243 44.5424C96.1827 44.783 95.8555 44.9182 95.5145 44.9182ZM95.5145 42.8555C95.3615 42.8555 95.212 42.9008 95.0848 42.9858C94.9576 43.0708 94.8584 43.1916 94.7999 43.333C94.7413 43.4743 94.726 43.6298 94.7559 43.7799C94.7857 43.9299 94.8594 44.0678 94.9676 44.1759C95.0757 44.2841 95.2136 44.3578 95.3636 44.3876C95.5137 44.4175 95.6692 44.4021 95.8105 44.3436C95.9519 44.2851 96.0727 44.1859 96.1577 44.0587C96.2427 43.9315 96.288 43.782 96.288 43.629C96.2867 43.4247 96.2046 43.2293 96.0597 43.0853C95.9147 42.9414 95.7188 42.8606 95.5145 42.8606V42.8555Z" fill="#093F68"/>
<path d="M22.4949 86.1361C22.2397 86.1371 21.99 86.0624 21.7773 85.9214C21.5646 85.7803 21.3985 85.5793 21.3002 85.3439C21.2018 85.1084 21.1755 84.849 21.2247 84.5986C21.2739 84.3482 21.3962 84.118 21.5763 83.9372C21.7564 83.7564 21.9861 83.6331 22.2363 83.5829C22.4866 83.5327 22.746 83.558 22.9819 83.6554C23.2178 83.7528 23.4194 83.918 23.5613 84.1302C23.7032 84.3423 23.7789 84.5917 23.7789 84.8469C23.7789 85.1879 23.6438 85.5151 23.4032 85.7567C23.1625 85.9983 22.8359 86.1347 22.4949 86.1361ZM22.4949 84.0734C22.3417 84.0724 22.1917 84.1169 22.0638 84.2013C21.9359 84.2856 21.8359 84.4061 21.7766 84.5473C21.7173 84.6886 21.7012 84.8443 21.7305 84.9946C21.7597 85.145 21.833 85.2833 21.941 85.392C22.0489 85.5007 22.1867 85.5749 22.3369 85.6052C22.4871 85.6354 22.6429 85.6204 22.7846 85.562C22.9262 85.5036 23.0473 85.4045 23.1325 85.2772C23.2178 85.1499 23.2633 85.0001 23.2633 84.8469C23.2633 84.6427 23.1825 84.4467 23.0385 84.3018C22.8946 84.1569 22.6992 84.0748 22.4949 84.0734Z" fill="#093F68"/>
<path d="M31.0086 45.5525C30.9402 45.5525 30.8747 45.5253 30.8263 45.477C30.778 45.4286 30.7508 45.363 30.7508 45.2946V42.6028C30.7508 42.5344 30.778 42.4688 30.8263 42.4205C30.8747 42.3721 30.9402 42.345 31.0086 42.345C31.077 42.345 31.1426 42.3721 31.1909 42.4205C31.2393 42.4688 31.2665 42.5344 31.2665 42.6028V45.2946C31.2651 45.3626 31.2376 45.4274 31.1895 45.4755C31.1414 45.5236 31.0766 45.5511 31.0086 45.5525Z" fill="#093F68"/>
<path d="M32.3545 44.186H29.6627C29.5943 44.186 29.5287 44.1588 29.4804 44.1104C29.432 44.0621 29.4048 43.9965 29.4048 43.9281C29.4048 43.8597 29.432 43.7942 29.4804 43.7458C29.5287 43.6975 29.5943 43.6703 29.6627 43.6703H32.3545C32.4229 43.6703 32.4885 43.6975 32.5368 43.7458C32.5852 43.7942 32.6123 43.8597 32.6123 43.9281C32.611 43.9961 32.5834 44.0609 32.5354 44.109C32.4873 44.1571 32.4225 44.1846 32.3545 44.186Z" fill="#093F68"/>
<path d="M124.459 95.2378C124.391 95.2378 124.325 95.2106 124.277 95.1622C124.229 95.1139 124.201 95.0483 124.201 94.9799V92.2881C124.201 92.2197 124.229 92.1541 124.277 92.1058C124.325 92.0574 124.391 92.0303 124.459 92.0303C124.528 92.0303 124.593 92.0574 124.642 92.1058C124.69 92.1541 124.717 92.2197 124.717 92.2881V94.9799C124.716 95.0479 124.688 95.1127 124.64 95.1608C124.592 95.2089 124.527 95.2365 124.459 95.2378Z" fill="#093F68"/>
<path d="M125.805 93.8816H123.113C123.045 93.8816 122.979 93.8544 122.931 93.8061C122.883 93.7577 122.856 93.6921 122.856 93.6237C122.856 93.5554 122.883 93.4898 122.931 93.4414C122.979 93.3931 123.045 93.3659 123.113 93.3659H125.805C125.874 93.3659 125.939 93.3931 125.988 93.4414C126.036 93.4898 126.063 93.5554 126.063 93.6237C126.062 93.6917 126.034 93.7565 125.986 93.8046C125.938 93.8527 125.873 93.8803 125.805 93.8816Z" fill="#093F68"/>
<path d="M74.9029 14.4469C74.8345 14.4469 74.7689 14.4197 74.7206 14.3714C74.6722 14.323 74.6451 14.2575 74.6451 14.1891V11.5024C74.6451 11.434 74.6722 11.3684 74.7206 11.3201C74.7689 11.2717 74.8345 11.2446 74.9029 11.2446C74.9713 11.2446 75.0369 11.2717 75.0852 11.3201C75.1336 11.3684 75.1608 11.434 75.1608 11.5024V14.1891C75.1608 14.2575 75.1336 14.323 75.0852 14.3714C75.0369 14.4197 74.9713 14.4469 74.9029 14.4469Z" fill="#093F68"/>
<path d="M76.2489 13.1062H73.5468C73.4788 13.1049 73.414 13.0773 73.3659 13.0292C73.3178 12.9811 73.2903 12.9163 73.2889 12.8484C73.2889 12.78 73.3161 12.7144 73.3645 12.666C73.4128 12.6177 73.4784 12.5905 73.5468 12.5905H76.2386C76.307 12.5905 76.3726 12.6177 76.4209 12.666C76.4693 12.7144 76.4964 12.78 76.4964 12.8484C76.4965 12.915 76.4707 12.9791 76.4246 13.0271C76.3785 13.0752 76.3155 13.1035 76.2489 13.1062Z" fill="#093F68"/>
<path d="M20.2517 26.6942C20.1392 26.6882 20.0272 26.6744 19.9165 26.653C19.4273 26.5796 18.9618 26.3933 18.5572 26.1086C18.1526 25.8239 17.8199 25.4488 17.5857 25.0131C17.3744 25.2953 17.1084 25.5321 16.8037 25.7093C16.4989 25.8865 16.1615 26.0005 15.8117 26.0445C15.7434 26.0527 15.6745 26.0334 15.6204 25.9908C15.5662 25.9483 15.5312 25.8859 15.523 25.8176C15.5148 25.7492 15.5341 25.6803 15.5766 25.6262C15.6192 25.572 15.6815 25.537 15.7499 25.5288C16.0751 25.4873 16.3868 25.373 16.6618 25.1945C16.9367 25.0159 17.1679 24.7777 17.3381 24.4974C17.1632 24.0729 17.0832 23.6152 17.1036 23.1565C17.1241 22.6977 17.2446 22.249 17.4568 21.8417C17.4782 21.8014 17.5101 21.7677 17.5491 21.7441C17.5882 21.7205 17.6329 21.7079 17.6785 21.7076C17.7237 21.7075 17.7682 21.7187 17.8078 21.7404C17.8475 21.762 17.8811 21.7933 17.9054 21.8314C18.1327 22.2351 18.2546 22.6895 18.26 23.1527C18.2655 23.616 18.1541 24.0731 17.9363 24.482V24.5284L17.9827 24.6315C18.1583 25.0415 18.4388 25.3979 18.7961 25.6649C19.1533 25.9319 19.5746 26.1 20.0175 26.1523C20.4604 26.2046 20.9093 26.1392 21.3189 25.9628C21.7284 25.7863 22.0843 25.505 22.3505 25.1472C22.591 24.8713 22.7812 24.5554 22.9126 24.2138C22.7593 23.9456 22.6869 23.6388 22.7043 23.3304C22.7217 23.022 22.8281 22.7252 23.0106 22.476C23.0421 22.4401 23.0825 22.4131 23.1278 22.3978C23.173 22.3824 23.2215 22.3791 23.2684 22.3883C23.3136 22.4 23.355 22.4232 23.3885 22.4558C23.4219 22.4884 23.4463 22.5291 23.4592 22.574C23.5966 23.1015 23.5841 23.6569 23.4231 24.1777C23.5255 24.3624 23.6747 24.5168 23.8558 24.6255C24.0368 24.7341 24.2433 24.7931 24.4545 24.7965C24.69 24.7852 24.9185 24.7127 25.1175 24.5861C25.3164 24.4595 25.4789 24.2832 25.5889 24.0746C25.7231 23.8463 25.8042 23.5907 25.8262 23.3269C25.7234 23.0582 25.6676 22.7739 25.6611 22.4863C25.6606 22.4283 25.6797 22.3718 25.7152 22.3259C25.7508 22.2801 25.8008 22.2475 25.8571 22.2336C25.914 22.2191 25.9742 22.2245 26.0277 22.2489C26.0811 22.2733 26.1246 22.3152 26.151 22.3677C26.282 22.6374 26.3474 22.9343 26.3418 23.234C26.4715 23.5322 26.6631 23.7994 26.9039 24.0179C27.1107 24.226 27.3595 24.3876 27.6337 24.4919C27.908 24.5963 28.2013 24.6409 28.4941 24.6228C28.787 24.6048 29.0726 24.5244 29.3319 24.3872C29.5912 24.25 29.8183 24.059 29.998 23.8271C30.1265 23.6688 30.2356 23.4957 30.3228 23.3114C30.1942 23.1635 30.0786 23.0048 29.9773 22.837C29.8705 22.6426 29.8246 22.4206 29.8458 22.1999C29.8669 21.9791 29.9541 21.7698 30.0959 21.5993C30.1814 21.5185 30.2919 21.4693 30.4092 21.46C30.5264 21.4506 30.6433 21.4816 30.7405 21.5478C30.8305 21.6189 30.9039 21.7089 30.9555 21.8113C31.0072 21.9137 31.0359 22.0262 31.0396 22.1408C31.0733 22.4887 31.0346 22.8399 30.9262 23.1722C31.1283 23.366 31.3853 23.4928 31.6622 23.5353C31.939 23.5777 32.2223 23.5338 32.4732 23.4094C33.7521 22.8524 34.7267 20.8774 34.3657 19.5676C34.3563 19.5347 34.3536 19.5004 34.3576 19.4664C34.3616 19.4325 34.3723 19.3997 34.3891 19.37C34.4059 19.3402 34.4284 19.3141 34.4554 19.2932C34.4824 19.2722 34.5132 19.2568 34.5462 19.2479C34.6119 19.2305 34.6817 19.2397 34.7406 19.2735C34.7995 19.3072 34.8427 19.3629 34.8608 19.4283C35.2939 20.9754 34.1904 23.2289 32.6743 23.8838C32.3605 24.0336 32.0109 24.0922 31.6653 24.053C31.3198 24.0138 30.9922 23.8783 30.7199 23.662C30.6259 23.8262 30.5171 23.9816 30.395 24.1261C30.1707 24.4114 29.8887 24.646 29.5675 24.8148C29.2463 24.9835 28.8931 25.0826 28.5309 25.1054C28.1688 25.1283 27.8059 25.0745 27.466 24.9475C27.1261 24.8205 26.8168 24.6232 26.5584 24.3685C26.4263 24.247 26.3071 24.1122 26.2026 23.9663C26.1577 24.0818 26.1043 24.1939 26.0427 24.3015C25.8946 24.5763 25.6803 24.8098 25.4192 24.9808C25.158 25.1519 24.8584 25.2552 24.5473 25.2813C24.3005 25.2887 24.0551 25.2407 23.8293 25.1408C23.6035 25.0408 23.403 24.8915 23.2426 24.7037C23.1022 24.9796 22.9291 25.2376 22.7269 25.4721C22.4273 25.8427 22.0508 26.1438 21.6235 26.3548C21.1961 26.5658 20.7281 26.6816 20.2517 26.6942ZM17.6733 22.6565C17.5983 23.017 17.5983 23.3892 17.6733 23.7497C17.765 23.3913 17.7667 23.0158 17.6785 22.6565H17.6733ZM30.4363 22.0119C30.3942 22.0577 30.3673 22.1153 30.3589 22.1769C30.321 22.3182 30.3356 22.4685 30.4002 22.5998C30.4298 22.6515 30.4626 22.7014 30.4982 22.7493C30.5214 22.5782 30.5214 22.4047 30.4982 22.2336C30.4982 22.0686 30.4414 22.0222 30.426 22.0119H30.4363Z" fill="#093F68"/>
<path d="M90.3783 58.3257C91.0049 58.3257 91.5128 57.8178 91.5128 57.1912C91.5128 56.5647 91.0049 56.0568 90.3783 56.0568C89.7518 56.0568 89.2438 56.5647 89.2438 57.1912C89.2438 57.8178 89.7518 58.3257 90.3783 58.3257Z" fill="#093F68"/>
<path d="M40.724 64.9573C41.3505 64.9573 41.8584 64.4494 41.8584 63.8228C41.8584 63.1963 41.3505 62.6884 40.724 62.6884C40.0974 62.6884 39.5895 63.1963 39.5895 63.8228C39.5895 64.4494 40.0974 64.9573 40.724 64.9573Z" fill="#093F68"/>
</svg>
