<svg width="77" height="81" viewBox="0 0 77 81" fill="none" xmlns="http://www.w3.org/2000/svg">
<path d="M62.6847 11.448L53.4882 20.6446V21.3315L62.6847 30.5281H76.3842V38.1601H59.5556L53.4882 32.0926V41.9761H49.6722C47.648 41.9761 45.7068 41.172 44.2755 39.7407C42.8442 38.3094 42.0401 36.3682 42.0401 34.3441V24.804H30.0579C29.7144 26.216 29.142 27.5516 28.3788 28.8109L50.359 68.6881H68.7522C70.7763 68.6881 72.7176 69.4922 74.1488 70.9235C75.5801 72.3548 76.3842 74.296 76.3842 76.3201V80.1362H0.0640551V76.3201C0.0640551 74.296 0.86814 72.3548 2.29942 70.9235C3.7307 69.4922 5.67193 68.6881 7.69607 68.6881H32.9199L15.0228 36.2521C8.15399 36.1376 2.20102 31.4439 0.483816 24.804C-1.61499 16.6378 3.30766 8.3189 11.5121 6.22009C19.6402 4.12129 27.9591 9.00578 30.0579 17.172H42.0401V7.63201C42.0401 5.60788 42.8442 3.66665 44.2755 2.23537C45.7068 0.804085 47.648 0 49.6722 0H53.4882V9.88346L59.5556 3.81601H76.3842V11.448H62.6847ZM15.3281 13.356C13.304 13.356 11.3627 14.1601 9.93144 15.5914C8.50015 17.0227 7.69607 18.9639 7.69607 20.988C7.69607 23.0122 8.50015 24.9534 9.93144 26.3847C11.3627 27.816 13.304 28.6201 15.3281 28.6201C17.3522 28.6201 19.2935 27.816 20.7247 26.3847C22.156 24.9534 22.9601 23.0122 22.9601 20.988C22.9601 18.9639 22.156 17.0227 20.7247 15.5914C19.2935 14.1601 17.3522 13.356 15.3281 13.356Z" fill="#FFDF4B"/>
</svg>
