<svg width="14" height="14" viewBox="0 0 14 14" fill="none" xmlns="http://www.w3.org/2000/svg">
<path d="M13.0583 8.72679C13.4741 8.72679 13.8112 9.04693 13.8112 9.44187V12.3022C13.8112 13.0921 13.137 13.7324 12.3053 13.7324H1.7645C0.932851 13.7324 0.258667 13.0921 0.258667 12.3022V9.44187C0.258667 9.04693 0.595763 8.72679 1.01158 8.72679C1.4274 8.72679 1.7645 9.04693 1.7645 9.44187V12.3022H12.3053V9.44187C12.3053 9.04693 12.6424 8.72679 13.0583 8.72679ZM7.70042 0.485007L10.7616 3.39245C11.0557 3.6717 11.0557 4.12447 10.7616 4.40372C10.4676 4.68298 9.99094 4.68298 9.69685 4.40372L7.78783 2.59061V9.44187C7.78783 9.83681 7.45075 10.157 7.03492 10.157C6.61908 10.157 6.282 9.83681 6.282 9.44187V2.59061L4.37296 4.40372C4.07892 4.68298 3.6022 4.68298 3.30817 4.40372C3.01414 4.12447 3.01414 3.6717 3.30817 3.39245L6.36941 0.485007C6.73699 0.135939 7.33285 0.135939 7.70042 0.485007Z" fill="black"/>
</svg>
